<svg xmlns="http://www.w3.org/2000/svg" xmlns:xlink="http://www.w3.org/1999/xlink" width="640" height="480"><g><path fill="#090" d="M0 0h640v480h-640z"/><path fill="#bf0000" d="M0 0h426.667v480h-426.667z"/><path d="M0 0h213.333v480h-213.333z"/></g><g transform="matrix(1.067 0 0 1.067 0 27.778)" fill="#fff" fill-rule="evenodd" stroke="#bd6b00" stroke-width=".5"><path d="M319.5 225.84l8.354.001c.031 3.157 1.881 6.549 4.48 8.493h-16.008c2.505-2.271 3.19-4.963 3.174-8.494z"/><path d="M266.71 178.53l4.574 5.04 56.934.093 4.667-5.04-14.56-.186-7.094-4.947-22.868-.093-6.627 5.133h-15.027z" stroke="none"/><path d="M290.02 172.74l19.66-.02c2.662-1.407 3.492-5.901 3.479-8.416-.037-7.428-5.232-10.991-10.447-11.18-.781-.039-1.688-.647-1.895-1.359-.514-1.613-.381-2.641-.944-2.584-.501-.007-.354.94-.799 2.452-.245.753-1.091 1.494-1.934 1.538-6.49.324-10.676 5.062-10.513 11.134.11 4.015.577 6.413 3.393 8.436z"/><path d="M257.66 242.83h84.469l-7.561-6.161h-69.348l-7.56 6.161z" stroke="none"/><path d="M296.39 219.69l1.54 4.62h3.499l-2.799-4.621-2.24.001zm-1.959 4.62l.886 4.573 4.106.047-1.493-4.621-3.499.001zm6.953.047l2.847 4.526h5.833l-4.573-4.574-4.107.048zm-34.441 10.36c3.095-2.878 5.071-5.335 5.087-8.867h7.56c.015 1.976.731 3.157 1.821 3.08l7.654-.047-.047-4.526h-5.554l-.001-24.688c-.202-8.727 10.609-13.813 15.028-13.767l-26.275-.047v-.793h55.255l.047.793-26.647.047c7.902.015 15.524 7.499 15.587 13.815v6.999h-1.027l-.047-6.906c0-6.907-8.699-13.363-15.681-13.161-6.036.173-15.4 5.928-15.307 13.115v2.147l14.327.093-.14 2.473 2.249 1.436 4.487 1.43-.066 3.709 3.214.947.028 3.706 3.855 1.655v3.836l2.445 1.506-.112 3.896 3.314 2.333h-7.84l4.9 5.461h-7.234l-3.595-5.461h-4.759l2.147 5.413-5.085-.047-1.215-5.366h-6.206l.047 5.786-22.214.001zm22.168-14.981v4.573h5.321l-1.075-4.573h-4.246z"/><path fill="none" d="M289.39 211.66h3.313v7.607h-3.313z"/><path d="M284.71 219.8h3.234l-.02-5.597c-.042-2.433 2.142-4.885 3.187-4.967 1.159-.044 2.867 2.296 2.924 4.776l.047 5.806 3.431-.007v-14.411l-12.803.068v14.332z" fill="none"/><path fill="none" d="M310.3 223.14h4.014v3.127h-4.014z"/><path fill="none" d="M307.92 217.77h4.014v3.127h-4.014z"/><path fill="none" d="M304.05 212.4h4.014v3.127h-4.014z"/><path fill="none" d="M300.74 207.88h4.014v3.127h-4.014z"/><path d="M298.08 219.82l4.106.14 7.327 6.487v-3.826l-2.473-1.773v-3.034l-3.593-2.052v-3.267l-3.5-1.166v-4.434l-1.774-1.447-.092 14.374z" fill="none"/><path d="M315.43 210.35h.98v7.047h-.98z"/><g id="a"><path d="M257.32 186.53c-1.234-1.982-2.712 2.749-7.788 6.271-2.363 1.608-4.009 5.893-4.025 8.712-.078 1.937.215 3.868-.001 5.741-.136 1.185-1.371 3.816-.527 4.488 2.234 1.661 5.126 5.431 6.468 6.732 1.16 1.017 2.165-5.248 3.035-8.052.933-3.005.515-6.596 3.102-9.372 1.834-1.874 6.459-3.719 5.94-4.554l-6.205-9.967z"/><path d="M257.06 201.88c-.385-.886-.958-1.802-1.656-2.594-.699-.792-1.525-1.457-2.438-1.781-.882-.325-1.779-.751-2.406-1.531-.314-.39-.584-.882-.719-1.469-.125-.544-.123-1.21-.031-1.969l-.281.25c-2.363 1.608-4.016 5.899-4.031 8.719-.031.779-.031 1.539 0 2.313.175.485.344.956.594 1.25.326.383.713.636 1.125.813.824.352 1.775.425 2.656.75.913.324 1.852 1.058 2.656 1.938.767.838 1.357 1.8 1.75 2.656l.219-.813c.845-2.721.697-5.889 2.563-8.531z" fill="#bf0000"/><path d="M249.82 192.39c-.484 3.356 1.385 4.473 3.148 5.123 1.825.649 3.322 2.607 4.093 4.378" fill="none"/><path d="M245.3 203.44c.771 2.893 2.798 2.531 4.561 3.181 1.825.649 3.745 2.957 4.516 4.728" fill="none"/><path d="M255.61 184.48l.925-.594 17.752 29.898-.923.594-17.753-29.898z"/><path d="M257.52 183.29a2.046 2.046 0 1 1-4.092 0 2.046 2.046 0 1 1 4.092 0z"/><path d="M272.7 159.27h7.194v1.65h-7.194z"/><path d="M272.7 162.4h7.194v13.784h-7.194z"/><path d="M272.26 157.39l7.98.047c.312-2.706-2.389-5.629-3.966-5.599-1.559.075-4.076 2.955-4.014 5.553z"/><path d="M292.62 155.76c-1.521.64-2.688 2.377-3.406 4.375-.719 1.998-.991 4.267-.656 6.094v.031c.128.63.301 1.083.5 1.406.199.323.422.513.688.563.265.049.514-.093.656-.313.142-.22.212-.509.188-.844-.144-1.879-.135-3.732.313-5.406.447-1.674 1.338-3.164 2.969-4.375.295-.216.464-.463.5-.719.036-.256-.1-.474-.281-.625-.363-.302-.937-.408-1.469-.188zm.156.438c.371-.154.842-.063 1.031.094.095.079.106.133.094.219-.012.086-.077.234-.313.406-1.713 1.272-2.656 2.871-3.125 4.625-.469 1.754-.459 3.66-.313 5.563.019.258-.055.455-.125.563-.07.108-.107.14-.188.125-.081-.015-.248-.117-.406-.375-.159-.258-.317-.656-.438-1.25-.315-1.714-.037-3.947.656-5.875.693-1.928 1.803-3.538 3.125-4.094z" fill="#bd6b00" stroke="none"/><path d="M295.19 157.73c-1.519.639-2.501 2.292-3.031 4.188-.53 1.895-.613 4.066-.281 5.875.26 1.284.934 1.961 1.594 2.063.33.051.648-.08.844-.344.196-.264.26-.619.156-1.063-.372-1.498-.516-3.366-.25-5.063.266-1.696.94-3.212 2.219-4.125.296-.215.464-.463.5-.719.036-.256-.1-.505-.281-.656-.364-.302-.937-.377-1.469-.156zm.188.438c.37-.154.81-.064 1 .094.095.079.137.134.125.219-.012.085-.108.235-.344.406-1.412 1.009-2.129 2.664-2.406 4.438-.278 1.773-.105 3.665.281 5.219.083.353.001.591-.094.719-.094.127-.214.186-.406.156-.384-.059-.983-.555-1.219-1.719-.318-1.731-.227-3.868.281-5.688.509-1.819 1.457-3.287 2.781-3.844z" fill="#bd6b00" stroke="none"/><path d="M272.31 187.39h8.027v11.107h-8.027z"/><path d="M272.78 204.85h7.747v2.333h-7.747z"/><path d="M272.59 208.95h7.933v8.68h-7.933z"/><path d="M272.03 219.41h8.68v4.853h-8.68z"/><path d="M273.1 202.76h6.995l1.387-2.309h-9.636l1.254 2.309z"/><path d="M282.53 194.25l.066-6.071h4.818c-1.892 1.561-3.652 3.454-4.884 6.071z"/><path d="M273.56 196.74c.048 1.299 1.518.719 1.518.066 0-2.003.026-4.169-.054-5.587-.01-1.045 2.491-.784 2.477-.14.01 1.692.029 4.012.038 5.991-.018.964 1.615.88 1.592 0-.01-2.211-.011-5.425 0-7.052.014-2.095-5.501-2.05-5.544-.047.002 1.645-.03 4.59-.028 6.769z" fill="none"/><path fill="none" d="M273.57 209.98h5.694v7.094h-5.694z"/><path d="M277.21 212.92h2.007v1.167h-2.007z"/><path d="M273.71 212.92h1.96v1.167h-1.96z"/><path d="M275.67 210.07h1.54v2.893h-1.54z"/><path d="M275.67 214.04h1.54v3.08h-1.54z"/><path d="M243.99 138.97c.356 5.567-1.371 8.623-4.32 8.158-.812-3.088 1.036-5.16 4.32-8.158z"/><path d="M237.52 151.31c-2.621-1.333-.73-11.513.276-15.78.744 5.497 1.989 13.309-.276 15.78z"/><path d="M238.45 151.79c4.406 1.533 7.894-3.212 9.073-8.708-3.636 5.019-9.555 5.025-9.073 8.708z"/><path d="M235.11 156.93c-3.445-.91-1.37-11.71-.744-16.03.757 4.462 3.132 14.552.744 16.03z"/><path d="M236.29 156.59c.192-3.725 3.905-2.648 6.468-4.636-.418 1.861-1.994 5.16-6.468 4.636z"/><path d="M232.07 161.58c-3.414-.921-1.362-12.544-1.555-17.329 1.001 4.135 4.17 16.209 1.555 17.329z"/><path d="M233.66 161.08c2.797.909 6.501-.908 6.793-4.239-2.408 1.634-6.254.385-6.793 4.239z"/><path d="M229.52 166.71c-3.265.26-1.804-9.638-1.802-18.857 1.199 8.617 4.467 16.505 1.802 18.857z"/><path d="M230.65 166.26c2.205 1.106 6.156-.662 7.284-4.387-3.984 1.732-6.648.039-7.284 4.387z"/><path d="M256.28 144.13c-.581 4.829-2.554 7.638-5.503 7.174-.812-3.088 1.578-5.062 5.503-7.174z"/><path d="M248.48 156.52c4.898.695 6.662-3.064 9.96-7.87-4.621 3.344-10.146 4.039-9.96 7.87z"/><path d="M247.09 155.97c-2.67-3.204-.09-7.228 1.951-10.657-.438 5.102 1.3 7.941-1.951 10.657z"/><path d="M245.91 161.26c-.301-3.134 5.038-3.83 7.452-5.572-.812 1.811-2.043 6.686-7.452 5.572z"/><path d="M244.79 161.33c-3.691-.418-2.159-6.686.487-10.17-1.115 4.807 1.95 8.15-.487 10.17z"/><path d="M242.01 166.55c-4.202-1.858-1.509-7.127.07-10.238-.674 4.086 2.693 7.196-.07 10.238z"/><path d="M242.84 166.06c2.205 2.879 6.501-.859 7.383-5.224-3.738 3.112-6.5 2.601-7.383 5.224z"/><path d="M233.24 186.32c-.432-4.287 2.793-12.084.504-16.24-.312-.571.685-2.087 1.329-1.167 1.006 1.468 2.041 5.652 2.474 4.107.459-1.68.529-4.651 2.016-5.228.949-.338 2.291-.559 1.925.934-.364 1.436-1.178 3.419-.276 3.547.523.078 2.03-1.954 3.3-2.893 1.023-.837 2.549.473 1.053 1.726-4.861 4.037-9.57 5.854-12.326 15.214z"/><path d="M224.51 250.85c-.57-.109-1.352-.303-.641.584 5.679 6.996 7.322 8.924 15.603 7.94 8.365-1.101 10.357-3.364 16.214-6.65 3.128-1.835 7.703-2.243 11.17-1.105 1.614.528 2.591.56 1.434-.598-1.157-1.157-2.525-2.731-3.949-3.815-3.118-2.394-8.407-3.432-12.723-2.662-6.104.957-11.148 4.844-17.176 6.312-3.167.723-6.641.614-9.932-.005z"/><path d="M272.3 263.35c1.056.131 1.725 2.177 2.245.792.882-2.242.264-4.026-.726-3.829-1.17.312-3.148 2.934-1.518 3.037z"/><path d="M220.6 182.92c-1.215-1.269-.864-1.754.933-1.774 1.425-.09 4.249.873 5.321.093.982-.713.591-3.738 1.027-5.133.19-.778.735-1.999 1.959-.093 3.622 5.805 8.146 12.773 10.08 19.6 1.057 3.826.062 9.8-3.454 13.814.124-3.423-1.152-5.725-2.707-8.587-1.921-3.762-9.056-13.951-13.16-17.919z" stroke="none"/><path d="M235.53 213.44c3.983.019 4.667-5.32 4.667-6.813-1.96.373-5.414 3.64-4.667 6.813z"/><path d="M269.95 265.26c2.833.645 2.794-6.178-.1-9.07 1.274 4.382-2.129 8.388.1 9.07z"/><path d="M268.85 265.2c.187 3.243-7.959-.424-10.052-2.946 4.813 2.045 9.815.352 10.052 2.946z"/><path d="M265.28 260.57c.291 3.141-7.064.379-9.238-2.074 4.83 1.56 8.916-.511 9.238 2.074z"/><path d="M266.63 261.01c2.833.645 2.374-6.412-.379-8.837 1.321 4.709-1.849 8.155.379 8.837z"/><path d="M263.65 256.72c2.833.645 1.207-5.431-.893-7.857.341 4.43-1.055 7.502.893 7.857z"/><path d="M262.15 256.7c.292 3.235-5.43.751-7.651-2.309 4.783 1.561 7.33-.276 7.651 2.309z"/><path d="M260.59 254.24c1.856-1.334-.113-4.863-3.645-4.645.346 2.131 1.566 5.88 3.645 4.645z"/><path d="M274.54 268.87c.187 3.243-7.96 1.63-10.519-1.825 5.139.971 10.281-.768 10.519 1.825z"/><path d="M242.18 263.07c.292 3.235-8.602-.322-10.823-3.383 4.783 1.561 10.502.798 10.823 3.383z"/><path d="M247.63 264.45c1.856-1.334-1.933-4.77-4.951-5.578.346 2.131 2.872 6.813 4.951 5.578z"/><path d="M248.2 266.69c.199 2.908-9.537 1.313-12.084-1.374 8.377 1.514 11.81-1.117 12.084 1.374z"/><path d="M252.76 268.63c1.081 2.701-8.264 2.042-11.545.471 5.301-.046 10.802-2.353 11.545-.471z"/><path d="M257.13 270.6c1.034 2.421-7.61 2.369-11.824 1.03 5.581-.046 10.801-3.426 11.824-1.03z"/><path d="M263.42 271.9c1.531 2.865-7.588 3.143-10.547 1.733 5.272-.725 9.242-3.988 10.547-1.733z"/><path d="M252.74 267c-2.901 1.829-2.746-3.564-5.053-7.3 3.626 3.302 7.019 5.555 5.053 7.3z"/><path d="M257.88 268.94c-2.433 2.156-4.379-5.246-6.594-9.399 3.58 3.954 8.839 7.609 6.594 9.399z"/><path d="M264.68 271c-2.061 2.389-8.02-7.018-10.187-11.919 3.299 3.815 11.826 9.895 10.187 11.919z"/><path d="M258.88 278.18c-1.028 3.632-16.192-3.423-17.885-7.079 8.677 4.598 18.092 3.636 17.885 7.079z"/><path d="M210.15 204.38c-.355-.46-1.374.012-1.119 1.121.237 1.5 2.449 9.203 6.252 11.853 2.712 1.954 16.965 5.102 23.427 6.439 3.556.716 6.535 2.49 8.868 5.321-.965-3.702-1.741-6.445-2.987-9.8-1.211-2.948-4.421-6.174-7.746-6.347-6.175-.222-14.167-.748-19.974-3.267-2.997-1.252-4.792-2.944-6.72-5.32z"/><path d="M245.54 234.87c1.947 1.434 4.096-3.704 1.623-8.588-.078 4.701-3.814 6.279-1.623 8.588z"/><path d="M247.41 239.58c2.693.827 3.536-3.937 1.763-7.747.296 4.094-4.234 6.56-1.763 7.747z"/><path d="M249.46 243.36c2.601 1.295 3.585-3.518 1.716-7.092.204 4.559-3.72 5.904-1.716 7.092z"/><path d="M248.39 243.65c-1.03 3.08-7.007-2.655-8.014-5.775 3.709 3.685 8.757 3.278 8.014 5.775z"/><path d="M245.68 238.94c-1.171 3.08-8.687-4.85-10.348-8.668 3.709 3.685 11.184 6.497 10.348 8.668z"/><path d="M244.19 234.32c-1.171 3.5-9.34-5.829-11.654-9.135 3.897 3.639 12.537 6.592 11.654 9.135z"/><path d="M243.93 230.86c2.877-.559-.163-2.955-3.689-6.849-.165 4.1.508 6.966 3.689 6.849z"/><path d="M239.08 228.53c1.242-1.353-1.191-1.929-4.203-5.31-.444 2.28 2.794 6.454 4.203 5.31z"/><path d="M253 243.73c1.574.921 2.652-2.304.69-5.225-.449 3.159-2.133 4.037-.69 5.225z"/><path d="M218.81 223.38c-3.342 2.004-8.652-5.992-10.068-9.282 2.933 3.775 10.699 7.224 10.068 9.282z"/><path d="M221.65 228.04c-1.85 2.051-7.671-3.519-9.694-6.341 3.12 2.702 10.512 3.024 9.694 6.341z"/><path d="M224.82 232.22c-.61 2.801-9.106-3.495-11.092-6.476 3.663 3.452 11.649 3.14 11.092 6.476z"/><path d="M223.52 235.25c-1.311 2.522-8.221-3.727-9.879-6.987 4.222 3.684 10.949 4.493 9.879 6.987z"/><path d="M219.97 222.97c2.18-2.299 1.252-3.376-.338-6.999-.869 3.721-2.179 5.205.338 6.999z"/><path d="M222.86 227.31c3.954.174.038-4.638-.897-8.679.344 4.606-1.014 8.238.897 8.679z"/><path d="M225.38 231.13c2.74-.619 1.95-4.497-.151-9.193.436 5.074-2.32 8.005.151 9.193z"/><path d="M224.45 238.8c-1.03 3.08-8.826-4.056-10.067-6.755 3.943 3.312 10.763 4.446 10.067 6.755z"/><path d="M229.12 243.61c-1.17 3.082-9.339-3.167-11.839-6.568 4.922 3.872 12.443 3.513 11.839 6.568z"/><path d="M233.88 248.46c-1.31 4.294-9.853-2.561-12.399-5.915 5.436 4.151 13.096 2.859 12.399 5.915z"/><path d="M225.85 237.43c2.321 1.201 3.258-5.384 1.949-10.033.018 5.074-4.654 8.845-1.949 10.033z"/><path d="M229.81 242.66c2.788.828 1.904-6.269-.478-10.873-.309 4.561-2.366 8.892.478 10.873z"/><path d="M234.76 247.56c3.114.174.971-6.084-1.597-9.613.437 4.607-1.013 9.079 1.597 9.613z"/><path d="M229.3 250.23c-.936 1.586-3.226-1.347-6.986-3.489 3.382.884 7.402 2.018 6.986 3.489z"/><path d="M227.52 197.49c2.906-2.15.689-6.173 0-9.998-.935 3.628-3.397 8.389 0 9.998z"/><path d="M227.42 202.85c-4.366-.524-3.709-6.171-3.841-9.751 1.313 4.859 4.892 5.679 3.841 9.751z"/><path d="M228.11 202.12c3.694-.214 3.498-4.417 3.695-8.668-1.872 3.908-4.089 4.514-3.695 8.668z"/><path d="M227.96 207.34c-2.873.229-4.366-2.594-5.023-6.993 2.725 4.055 5.204 2.791 5.023 6.993z"/><path d="M228.99 206.99c3.694.475 3.104-3.825 2.955-6.995-1.133 3.021-4.137 3.973-2.955 6.995z"/><path d="M223.23 205.17c.295 2.807 2.069 7.634 4.926 6.55 1.181-3.448-2.512-4.137-4.926-6.55z"/><path d="M229.04 212.02c-1.281-2.462 2.905-3.695 3.792-6.895.509 4.58.082 7.585-3.792 6.895z"/><path d="M217.13 182.84c2.3-2.477.269-6.406-.421-10.231-.935 3.628-2.557 8.435.421 10.231z"/><path d="M217.06 187.45c-4.039.41-5.016-7.804-5.427-11.337 1.313 4.859 5.965 7.079 5.427 11.337z"/><path d="M217.89 187.37c2.854-1.474 2.191-4.649 3.088-7.035-1.919 2.928-3.669 3.347-3.088 7.035z"/><path d="M217.09 192.75c-4.225.362-6.742-8.739-6.874-12.318 1.313 4.859 7.366 7.5 6.874 12.318z"/><path d="M217.9 192.61c3.973-.914 3.498-3.483 2.902-7.642-1.265 4.188-3.482 3.301-2.902 7.642z"/><path d="M217.04 198c-4.646.788-4.32-6.561-8.009-11.893 3.191 3.96 8.936 8.95 8.009 11.893z"/><path d="M218.09 197.75c3.507.102 3.85-5.179 3.656-7.321-.806 2.134-4.93 4.16-3.656 7.321z"/><path d="M209.78 192.34c1.742 5.654 4.216 11.32 7.259 10.89 1.461-3.215-2.886-3.624-7.259-10.89z"/><path d="M218.14 202.4c-1.281-2.462 2.905-3.695 3.792-6.895.509 4.58.082 7.585-3.792 6.895z"/><path d="M210.98 198.8c2.487 5.094 3.609 10.948 7.024 10.097 1.275-3.961-3.771-4.79-7.024-10.097z"/><path d="M218.71 207.93c-1.467-2.695 2.719-3.648 3.745-7.362.555 4.861.036 8.331-3.745 7.362z"/><path d="M225.87 173.45c2.451.663 5.022-2.089 4.131-6.208-2.801.698-4.087 3.241-4.131 6.208z"/><path d="M218.03 171.39c.214 1.159 1.623 1.264 1.214-.373-.342-1.328-.4-2.327 0-3.407.548-1.353.366-3.658-.047-4.62-.416-1.015-1.793-.421-1.214.374.638.921.671 2.837.233 3.732-.577 1.321-.42 3.075-.186 4.293z"/><path d="M240.9 187.31c-.947 1.393-2.881.541-1.408-1.372 1.207-1.549 2.928-2.814 3.055-4.414.1-2.029 1.291-5.107 2.373-6.145 1.118-1.106 2.409.45 1.214 1.187-1.343.872-2.215 4.457-2.185 5.836-.045 2.001-2.041 3.447-3.049 4.907z"/><path d="M237.92 185.07c-.947 1.393-2.457.585-1.601-1.652.722-1.549.8-3.468 1.604-4.6 1.125-1.716 3.031-3.147 4.112-4.185 1.118-1.106 2.046-.04 1.021.907-1.244 1.245-2.595 2.795-3.345 3.969-1.399 2.281-.783 4.1-1.791 5.561z"/><path d="M222.18 177.86c-.112 1.967 1.471 2.443 1.4-.409-.072-2.978-2.179-5.702-.886-10.235.68-2.218.692-6.281.28-8.441-.362-2.142-1.886-.743-1.307.926.638 1.934-.119 5.644-.607 7.511-1.463 5.434 1.207 8.08 1.121 10.649z"/><path d="M226.5 166.98c-.232 1.81-1.764 1.974-1.319-.582.371-2.075.435-3.635 0-5.321-.596-2.114-.397-5.713.051-7.215.452-1.586 1.949-.657 1.319.584-.693 1.438-.73 4.431-.253 5.829.627 2.064.457 4.803.203 6.706z"/><path d="M210.94 204c.758.902 2.036.298.871-.923-.953-.987-.639-1.298-1.22-2.5-.574-1.343-.544-2.084-1.238-3.044-.613-.91-1.535.018-.917.785.775.906.561 1.574 1.036 2.451.876 1.5.663 2.288 1.468 3.232z"/><path d="M231.34 228.61c2.439 1.199 4.291 4.196 4.413 6.636.207 2.809.612 5.18 1.873 7.176-2.008-.559-2.97-3.76-3.255-6.825-.289-3.173-1.999-4.549-3.031-6.987z"/><path d="M236.42 234.49c1.688 3.116 4.049 4.304 4.169 6.617.204 2.661.407 2.797 1.128 5.414-1.987-.53-2.487-.703-3.024-4.685-.331-2.798-2.571-4.772-2.273-7.346z"/><path d="M288.97 263.32c.949 1.788 2.038 4.511 4.013 4.013.031-1.369-2.131-2.318-4.013-4.013z" stroke="none"/><path d="M291.91 263.93c3.835 1.572 7.147 1.184 7.56 3.595-3.598.388-4.914-1.089-7.56-3.595z" stroke="none"/><path d="M275.85 251.24c2.583 2.116 4.259 4.531 5.04 7.653.815 2.908 1.96 5.226 3.641 7.84-2.738-1.867-4.46-4.407-5.321-7.468-.756-3.008-1.649-5.256-3.361-8.025z" stroke="none"/><path d="M279.03 251.23c2.769 2.21 5.379 4.719 6.161 7.84.815 2.908 1.307 5.133 3.174 8.027-2.924-1.867-4.086-4.688-4.947-7.748-.756-3.007-2.49-5.255-4.388-8.119z" stroke="none"/><path d="M288.17 258.47c-.076-.546.297-1.023.747-1.166.874-.327 1.745-.594 2.613-.84.986-.233 1.538.471 1.541.933.005.769.041 1.423 0 2.006-.054.726-.192.78-.653.888-.738.124-1.684.251-2.426.747-.588.361-1.153.075-1.447-.559-.19-.485-.294-1.434-.374-2.008z" stroke="none"/><path d="M298.8 258.47c.068-.546-.22-1.069-.621-1.213-.781-.327-1.559-.407-2.38-.374-.911-.014-1.141.191-1.144.653-.004.769-.036 1.516 0 2.099.048.726.032.78.444.888.66.124 1.784.158 2.447.653.525.361 1.124.075 1.153-.606-.013-.514.03-1.527.101-2.101z" stroke="none"/></g><use x="-600" xlink:href="#a" transform="scale(-1 1)" width="600" height="400"/><g stroke="none"><path d="M328.54 286.65c.047 1.181.188 2.131.888 3.08-4.076-1.633-9.831-.759-13.767 1.074-1.756.839-3.88-.958-1.821-2.66 2.929-2.374 9.706-1.027 14.7-1.493zm-57.505-.062c.057 1.113-.072 2.134-.481 3.106 4.431-1.835 9.188-.311 13.664 1.494 3.077 1.272 3.326-.931 2.782-1.693-.934-1.352-2.742-2.837-5.028-2.869-1.522-.021-7.382-.074-10.937-.038zm3.74-21.642c-1.236-.533-2.672-.02-3.96 1.336-4.327 4.24-9.404 8.371-13.502 11.584-1.529 1.328-3.092 3.712 3.431 6.094.237.09 4.991 1.852 8.004 1.964 1.23-.035 1.227 1.803.999 2.292-.52.978-.143 1.352-1.193 2.294-1.094.923.117 2.119.977 1.307 3.672-3.188 9.627-1.148 15.366.718 1.356.375 3.837.27 3.816-1.601.024-2.038 1.5-3.479 2.404-3.531 2.343.406 13.919.535 17.485.102 2.079-.27 2.204 2.848 3.316 4.077.767.815 3.719 1.031 5.743.137 4.001-1.859 10.097-1.859 12.582-.082 1.021.778 1.828.147 1.247-.643-.748-1.08-.731-1.581-1.103-2.433-.933-1.898-.189-2.363.79-2.5 11.054-1.425 14.582-5.197 11.202-8.272-4.364-3.828-9.223-7.676-13.408-12.198-1.135-1.199-1.885-1.681-4.247-.699-7.221 3.289-16.388 5.686-25.358 5.862-8.347.072-19.824-3.789-24.589-5.807z"/><path d="M326.62 265.54c-.58.058-1.197.238-1.656.406-8.921 3.134-17.117 5.328-25.656 5.313-8.335-.015-17.066-2.309-24.906-5.531-.446-.191-.96-.161-1.469-.031-.509.13-1.012.366-1.344.688-3.641 3.627-7.582 7.148-11.812 10.344-.639.488-.535 1.731.5 2.156h.031c8.304 2.979 16.412 8.531 39.625 8.313 23.433-.221 31.746-5.64 39.188-8.125.525-.2 1.064-.499 1.313-.969.124-.235.158-.526.063-.813-.095-.287-.284-.554-.625-.844h-.031c-4.223-3.452-8.749-6.206-11.719-10.406-.334-.479-.92-.558-1.5-.5zm.031.438c.507-.051.895.027 1.094.313 3.041 4.301 7.621 7.074 11.812 10.5.3.254.442.48.5.656.059.176.044.296-.031.438-.15.284-.59.57-1.063.75-7.534 2.516-15.668 7.904-39.031 8.125-23.115.218-31.094-5.302-39.469-8.313-.755-.31-.687-1.161-.406-1.375 4.242-3.206 8.227-6.741 11.875-10.375.251-.243.653-.45 1.094-.563.441-.112.912-.131 1.219 0 7.879 3.238 16.613 5.578 25.031 5.594 8.618.016 16.903-2.203 25.844-5.344.445-.163 1.024-.356 1.531-.406z" fill="#bd6b00"/><path d="M269.71 114.56c-.068-1.379 2.069-1.484 1.824.412-.313 2.362 4.458 8.342 4.854 12.029.265 2.473-1.453 4.637-3.154 5.984-2.086 1.616-5.293 1.393-6.794.467-.908-.731-1.736-3.233-1.056-4.224.24-.333 1.327 3.673 3.721 3.657 3.258-.021 5.897-2.468 5.993-4.651.167-3.801-5.329-9.809-5.389-13.675z"/><path d="M279.24 123.95c.539-.385 1.399 1.296.792 1.716-.505.337-1.492-1.249-.792-1.716z"/><path d="M280.69 120.54c-.272.132-.814-.056-.652-.287.762-1.089 2.387-2.728 3.565-3.3.362-.176.995.463.777.776-.705 1.007-2.42 2.195-3.689 2.811z"/><path d="M293.28 110.55c.302-.631 2.117-1.344 2.579-1.771.428-.438.632.37.449.752-.302.631-1.868 1.695-2.555 1.724-.369.015-.656-.324-.473-.705z"/><path d="M297.59 110.75c.393-1.107 1.661-2.786 2.533-3.339.448-.283 1.252-.06 1.101.364-.333.94-1.884 2.581-2.927 3.355-.317.282-.798-.123-.707-.38z"/><path d="M293.9 113.52c-.263.132-.121.691.133.776.539.179 1.52.214 1.964-.031.645-.398.351-2.844-.512-1.537-.579.806-1.002.547-1.584.792z"/><path d="M286.61 119.14c-1.318-1.026.355-2.464 1.732-1.46 2.683 2.024-4.003 9.778-7.641 13.403-.665.71-1.25-1.078-.397-1.848 2.608-2.212 5.05-4.855 6.747-7.585.327-.526.64-1.659-.442-2.509z"/><path d="M301.88 112.47c.164-.982-1.589.021-1.621-1.281-.017-.689 1.915-1.173 2.723-.38 1.364 1.384.344 3.718-1.925 3.865-1.891.084-5.046 2.685-4.566 3.232.546.675 5.45 1.121 8.302.675 1.766-.248 1.395 1.331-.413 1.545-1.748.201-3.172.015-4.805.528-1.922.549-2.761 3.129-3.829 4.092-.238.167-.879-.846-.636-1.227.769-1.203 1.996-3.045 3.346-3.572.852-.345-2.349-.454-3.37-.745-.81-.244-.575-1.274-.264-1.848.412-.895 3.429-3.916 4.645-3.867 1.142.048 2.3-.284 2.413-1.017z"/><path d="M306.96 112.73c.567-.501.858-1.338 1.453-1.848.326-.327.847.065.76.853-.073.621-.907 1.156-1.467 1.623-.456.342-.987-.396-.745-.628z"/><path d="M313.43 110.43c.845-.093 1.055 1.537.131 1.801-.56.187-1.05-1.705-.131-1.801z"/><path d="M311.3 115.47c-.013 1.404.68 1.275 2.002 1.227 1.283-.048 2.412.033 2.407-1.235-.006-1.314-.728-2.464-.939-1.569-.186.84-.334 2.215-.823 1.616-.461-.515-.278-.628-1.072.217-.44.466-.49-.226-.754-.66-.184-.257-.821.208-.822.404z"/><path d="M302.08 122.63c-.315 1.858-.026 4.459.925 4.488 1.175.038 3.608-4.061 4.759-6.188.691-1.187 1.877-1.394 1.382-.156-.749 1.91-.682 5.998-.024 7.199.354.647 2.964-.593 3.386-1.515.767-1.675.143-4.762.412-6.647.13-1.238 1.263-1.496 1.203-.349-.112 2.052-.307 5.815-.162 7.524.086.982 2.895 2.432 3.346-.543.238-1.872 1.202-3.719-.047-5.793-.774-1.297 1.136-1.135 2.166.637.72 1.206-.607 3.201-.56 4.744.119 2.373-1.726 3.721-3.065 3.749-1.197.024-1.977-1.446-2.958-1.467-1.088-.069-2.207 1.693-3.106 1.631-3.486-.238-1.64-5.333-2.702-5.396-1.181-.07-2.574 4.994-4.029 4.813-1.435-.172-2.92-4.127-2.322-5.8.54-1.557 1.558-1.922 1.398-.932z"/><path d="M318.96 114.6c-1.701-1.038.108-3.736.939-2.788 1.606 1.923 3.224 6.487 4.356 6.864.717.239.683-3.374 1.189-5.016.326-1.213 1.793-.817 1.512.737-.096.519-1.916 6.421-1.776 6.655 1.262 2.522 2.51 5.081 3.3 7.788.326 1.167-1.075.381-1.242.139-.895-1.337-2.461-6.452-2.461-6.219-.72 3.598-.89 4.66-1.655 7.717-.233.98-1.675.801-1.35-.924.313-1.418 2.375-8.393 2.259-8.595-1.621-2.862-3.104-5.125-5.07-6.359z"/><path d="M322.03 131.2c-.474-.054-1.21 1.055 1.152 1.491 3.156.571 6.611-.492 7.67-3.587 1.212-3.687 2.014-7.176 2.647-8.493.791-1.535 1.803-1.411 1.056-3.651-.527-1.612-1.51-1.126-1.717-.264-.552 2.35-2.646 9.952-3.3 11.352-1.233 2.555-3.718 3.565-7.508 3.152z"/><path d="M328.35 119.07c-.338-.725-1.127-.164-.986.629.084.717.665 1.107 1.25 1.087.692-.024 2.155.023 2.159-1.125.002-.807-.632-1.481-1.103-.591-.45.806-1.03.722-1.32 0z"/><path d="M329.14 116.03c-.243.168-.025 1.066.264 1.056 1.031-.034 2.492-.363 3.275-.908.229-.159.134-.702-.192-.691-.994.033-2.576.007-3.346.543z"/><path d="M337.9 118.29c.747-1.167 2.806-1.286 2.066.38-.524 1.148-5.652 11.055-6.352 12.315-.763 1.417-1.388.715-.846-.388.73-1.42 4.898-11.962 5.132-12.307z"/><path d="M330.18 133.04c-.219-.788-1.442-1.954-1.304.155.244 3.829 5.504 2.618 7.096 1.258 1.446-1.281.191 4.322 2.112 4.922 1.058.339 3.051-1.105 4.031-2.376 2.717-3.525 4.445-8.578 7.058-12.058.987-1.361-.54-2.332-1.158-1.249-2.272 3.81-5.094 11.585-8.176 13.604-2.512 1.608-1.768-2.07-1.855-3.175-.11-.811-1.098-2.003-2.416-.908-.921.72-2.352 1.305-3.648 1.188-.751-.042-1.386-.029-1.739-1.359z"/><path d="M339.57 125.93c.028-.216-1.112-.314-1.056.792.039.819 1.019 1.041 1.188.924 1.541-1.121-.327-.562-.131-1.716z"/><path d="M337.33 130.42c-.303.071-.582 1.04.133 1.095.653.047 3.213-.228 3.921-.187.458-.017.632-.892-.349-.845-1.19.06-2.754-.239-3.704-.063z"/><path d="M275.37 113.76c.406.019 1.52 1.462 1.447 1.913-.05.213-1.191-.032-1.54-.327-.258-.218-.154-1.598.093-1.587zm-5.369 10.452c-1.018.555.161 1.651.923 1.188 2.861-1.853 7.155-3.798 8.052-7.468.288-1.243 1.443-3.148 2.54-3.573 1.06-.411 2.598 1.917 3.603.085.589-1.047 2.653.687 3.151-.433.607-1.353.318-2.098.343-3.395-.044-.849-.693-1.103-1.164.272-.245.623.043 1.251-.157 1.576-.152.247-.625.486-.9.28-.253-.19-.078-.72-.685-.955-.235-.118-.613-.216-.776.085-.72 1.285-1.119 2.483-2.128 1.117-.898-1.176-1.353-3.209-2.012-.427-.237.982-1.729 2.407-2.609 2.407-1.099 0-.823-2.894-3.237-2.453-1.241.265-1.155 2.64-.97 3.518.305 1.22 3.932.344 3.751 1.141-.62 2.771-4.467 5.405-7.727 7.035z"/><path d="M247.3 137.42c-.154.464.462 1.723 1.101 1.816.627.047.947-1.359.745-1.816-.149-.336-1.737-.329-1.847 0z"/><path d="M250.63 142.3c-.403-.434-1.589.73-.63 1.553.539.436 2.512 1.069 3.052.148.731-1.185-.72-5.488-.078-6.057.502-.444 2.828 2.874 3.976 3.113 2.697.374 2.05-4.618 4.957-4.279 1.981.264 2.198-2.211 1.922-3.757-.221-1.483-2.622-3.624-3.726-4.581-1.453-1.209-2.1.892-1.189 1.584 1.173.939 3.236 2.837 3.565 4.092.155.593-1.434 1.77-2.019 1.452-1.351-.737-2.608-3.898-3.789-4.62-.403-.246-1.393.31-.916 1.296.536 1.057 2.905 2.693 3.044 3.821.125 1.029-1.056 3.253-1.831 3.253-.853 0-3.027-2.688-3.706-3.953-.339-.606-1.515-.547-1.638.289-.195 1.256.182 3.912.481 5.559.238 1.559-.878 1.638-1.475 1.087z"/><path d="M246.56 133.73c-.339.384.792 1.134 1.017.939.436-.378 2.129-2.307 1.803-2.982-.29-.602-2.619-1.919-2.997-1.267-.702 1.129 2.195 1.634 1.741 1.965-.223.128-1.02.679-1.563 1.344z"/><path d="M250.73 125.27s.728 2.489 1.32 1.452c.479-.719-1.32-1.452-1.32-1.452z"/><path d="M251.92 129.23c-.266.146-1.017.74-.528 1.056.773.457 2.876.819 2.421-.676-.276-.881 3.171.025 2.331-2.36-.22-.66-1.259-1.612-1.77-1.747-.325-.086-1.429.52-.738.853.504.261 2.025 1.155 1.46 1.74-.642.612-1.088-.275-1.886-.132-.401.076-.14 1.219-.366 1.529l-.923-.264z"/><path d="M257.4 119.77c-.435.217-1.214 1.396-1.242 1.941-.015.291.303.691.552.567.456-.228 1.161-1.344 1.188-1.856.017-.324-.227-.787-.497-.652z"/><path d="M260.24 119.46c-.84-1.027.891-2.551 1.67-.496.471 1.289 5.488 7.892 6.514 10.132.726 1.516-.026 2.142-.925 1.056-2.541-3.242-4.626-7.283-7.26-10.692z"/><path d="M265.39 119.6c.895-.969 2.721-2.949 2.229-4.053-.378-.95-1.487-.855-1.677-.636-1.086 1.296.772.971.504 1.413-.553 1.038-1.104 1.61-1.389 2.608-.067.234.172.843.333.668z"/><path d="M343.17 122.84c-.643-.521.632-3.044 1.494-2.053 2.368 2.74 3.468 11.636 4.152 18.294 0 0-1.064.888-1.073.747 0-3.547-1.425-14.397-4.574-16.987z"/><path d="M290.07 114.18c-.766-1.76 1.149-2.412 1.436-1.157 1.331 5.783 4.517 10.161 6.942 14.093.73 1.229.145 1.962-1.631.831-1.229-.843-2.478-3.916-3.082-4.037-1.094-.204-3.713 4.993-9.07 3.509-1.386-.387-1.294-4.508-1.32-6.328-.059-.853.884-1.079.916.085.049 1.678-.002 5.164 2.144 5.281 1.75.098 5.627-2.377 6.444-4.311.728-1.989-1.952-5.941-2.78-7.967z"/><path d="M344.61 138.38c.428-1.191 6.114-10.735 6.861-12.835.382-1.013 2.014 1.737.421 3.22-1.4 1.26-5.531 8.034-6.302 10.408-.355 1.072-1.431.561-.98-.793z"/><path d="M354.28 129.28c1.05-3.935 3.593.607 1.353 2.847-3.458 3.387-4.5 9.854-9.987 10.827-1.479.318-4.082-.665-4.854-1.214-.301-.214.195-1.619 1.119-.933 1.337 1.044 4.098 1.279 5.555.093 3.118-3.061 5.657-7.114 6.813-11.621z"/><path d="M297.27 142.02c-.247.284-1.004.238-1.072.637-.297 1.48 0 2.23-.326 3.656-.312 1.364-1.259 1.416-1.195.303.086-1.442 1.275-3.478.435-3.617-.559-.131-.99-.879-.412-1.248 1.092-.757 1.678-.642 2.429-.413.262.08.329.465.141.683z"/><path d="M296.5 140.09c-1.448 1.266-2.791 1.784-4.123 3.384-.545.656-.529 1.57-.854 2.406-.326.888-1.375 1.062-1.7.877-.544-.357-.465-2.003-1.072-1.117-.515.816-.847 1.94-1.608 1.926-.688-.014-1.987-1.422-1.328-1.49 2.252-.231 2.224-2.033 3.068-2.151.946-.127 1.008 1.488 1.592 1.165.459-.235.675-2.117 1.173-2.625 1.527-1.56 2.735-2.385 4.292-3.531.788-.628 1.351.505.559 1.156z"/><path d="M301.78 144.94c-1.159.234-.962 1.724-.621 1.909.561.262 1.43.372 1.755-1.342.152-.704.289 3.498 1.831 1.879.888-.981 3.087.178 4.008-1.056.659-.822.863-1.395.349-2.609-.149-.369-1.052-.188-1.001.708.045.755-.535 1.687-1.29 1.528-.367-.067.207-1.847-.161-2.329-.203-.265-.511-.237-.713.038-.283.385.284 2.091-.646 2.315-1.174.271-.559-1.141-1.056-1.399-1.598-.806-1.752.209-2.454.357z"/><path d="M310.83 142.08c.849-.239.584-.24 1.921-1.334.521-.394.624.76.569 1.216-.097.775-1.018.228-1.303.91-.418.886-.248 2.948-.388 3.788-.096.431-.787.394-.853.054-.198-1.024.14-2.026.108-3.307-.011-.435-.633-1.117-.053-1.327z"/><path d="M305.83 139.46c-.205.927-.19 1.69-.19 2.325.047.514.986.183.982.117-.047-.814.139-1.939-.102-2.253-.13-.169-.643-.365-.69-.19z"/><path d="M299.54 130.19l-1.458 5.594-2.029-3.75v3.844l-4.375-5.188 1.522 5.563-3.931-3.344 2.092 3.781-6.975-4.5 4.439 5.188-5.58-2.75 3.995 3.375-9.13-3.438 8.813 4.344c3.223-1.588 7.641-2.563 12.554-2.563 4.896 0 9.335.984 12.554 2.563h.063l8.75-4.344-9.004 3.469 3.931-3.406-5.516 2.719 4.375-5.156-6.975 4.5 2.092-3.781-3.931 3.344 1.522-5.563-4.375 5.219.063-3.875-2.029 3.75-1.458-5.594z"/></g></g><path d="M311.275 321.739c0 .632-.095 1.545-.285 2.739h-.442c0-.813-.038-1.439-.114-1.876-.071-.437-.214-.958-.428-1.562-.176-.509-.369-.942-.578-1.298-.209-.361-.544-.842-1.006-1.441l.884-2.183c.409.523.699.925.87 1.205.195.323.378.73.549 1.22.176.49.311 1.003.407 1.541.095.537.143 1.089.143 1.655" fill="#fff"/><path d="M318.208 317.515c0 .666-.126 1.165-.378 1.498-.252.333-.682.571-1.291.713.176.618.292 1.101.35 1.448.062.347.093.735.093 1.163 0 .276-.017.571-.05.884-.029.314-.083.737-.164 1.27h-.399c0-.476-.026-.884-.079-1.227-.048-.347-.121-.673-.221-.977-.024-.076-.15-.411-.378-1.006-.224-.599-.447-1.096-.671-1.491-.219-.399-.578-.949-1.077-1.648l.685-2.054c.361.518.678.877.949 1.077.271.195.592.292.963.292.808 0 1.213-.437 1.213-1.312h.414c0 .285.007.523.021.713.014.185.021.404.021.656" fill="#fff"/><path d="M324.576 322.336l-.514 2.14c-.323-.09-.587-.345-.792-.763-.171-.347-.295-.787-.371-1.32-.071-.533-.107-1.084-.107-1.655-.433.114-.775.171-1.027.171-.499 0-.913-.131-1.241-.392-.323-.266-.485-.602-.485-1.006 0-.87.224-1.652.671-2.347.452-.699.961-1.049 1.526-1.049.438 0 .742.124.913.371.19.271.307.58.35.927.043.347.064 1.018.064 2.012 0 .889.071 1.517.214 1.883.114.285.38.628.799 1.027m-1.926-3.552c-.086-.542-.371-.813-.856-.813-.209 0-.402.057-.578.171-.176.114-.264.214-.264.3 0 .285.342.428 1.027.428.219 0 .442-.029.671-.086" fill="#fff"/><path d="M331.317 321.803l-.257 2.596c-.509-.357-.98-1.001-1.412-1.933-.452-.975-.908-2.356-1.37-4.144-.395 1.722-.72 2.984-.977 3.788-.252.799-.502 1.365-.749 1.698-.166.224-.433.449-.799.678l.057-2.482c.471-.642.801-1.132.992-1.469.281-.499.511-1.082.692-1.748.185-.671.352-1.567.499-2.689h.471c.29 1.127.571 2.023.842 2.689.252.628.547 1.182.884 1.662.238.338.613.789 1.127 1.355" fill="#fff"/><path d="M350.912 346.293c.347.406.59.805.731 1.196.137.386.235.939.296 1.656l-.774.063c-.33-.645-.65-1.15-.962-1.516-.238-.279-.621-.675-1.151-1.188-.53-.514-1.072-1.014-1.625-1.501-.557-.492-1.267-1.06-2.13-1.705-.303-.225-.495-.386-.577-.482-.121-.142-.216-.42-.286-.837-.074-.421-.12-.944-.139-1.569l2.701 2.197c1.019.839 1.862 1.58 2.53 2.223.514.495.976.983 1.385 1.462m-9.58-5.773l-.162 1.986-3.181-.086.239-2.027 3.104.127m8.367 8.892l-7.579 2.309-1.395-1.927 6.552-1.996c-.297-.411-.528-.698-.69-.862-.253-.252-.542-.449-.868-.592-.021.364-.172.684-.452.959-.28.276-.643.481-1.087.616-.582.177-1.164.202-1.746.074-.582-.128-1.009-.382-1.283-.759-.403-.557-.62-1.299-.649-2.224-.033-1.016.245-1.614.835-1.794.764-.233 1.798-.02 3.101.638s2.303 1.469 3 2.433l2.261 3.125m-5.821-4.047c-.357-.162-.643-.262-.857-.301-.211-.045-.403-.042-.578.012-.218.067-.369.19-.451.371-.083.181-.062.356.061.526.079.109.211.181.397.216.19.029.39.011.601-.053.167-.051.313-.133.436-.245.127-.119.258-.295.392-.526m-8.119-1.551l-.464 1.966-3.152-.29.479-1.986 3.138.31m7.472 7.677l-1.683.386c-.599.137-1.169.18-1.71.127-.541-.053-1.047-.222-1.518-.507-.278.507-.768.932-1.468 1.275-.464.228-1.003.413-1.618.554l-1.194.274-1.094-2.007 1.194-.274c.629-.144 1.058-.265 1.287-.362.234-.103.526-.279.878-.525-.386-.238-.697-.402-.933-.492-.288-.106-.542-.133-.762-.083-.083.019-.152.057-.207.114-.05.05-.091.137-.126.261l-.525.07c-.485-.891-.596-1.579-.332-2.066.269-.493.915-.857 1.938-1.092 1.054-.242 1.954-.296 2.701-.163.751.127 1.255.424 1.509.891.137.251.188.51.155.778-.036.263-.167.642-.392 1.136.157.069.341.11.553.122.211.012.401-.001.567-.039l1.683-.386 1.094 2.007m-8.047 1.872l-1.642.258c-.915.143-1.666.003-2.254-.42-.654-.467-1.218-1.337-1.692-2.61l-.808-2.169c-.183-.492-.432-.858-.745-1.099-.151-.116-.456-.269-.916-.46l.558-2.101c.605.335 1.071.686 1.398 1.053.383.429.708 1 .974 1.716l.558 1.499c.395 1.06.778 1.779 1.15 2.155.295.303.63.425 1.005.366l1.642-.258.771 2.07m-7.016-7.536l-1.06 1.867-2.999-.693 1.069-1.883 2.991.709m1.745 8.449l-7.48.678-.454-2.109 6.285-.569c-.163-.344-.387-.626-.67-.848-.148-.124-.477-.331-.987-.622l.559-1.932c.692.385 1.197.808 1.516 1.27.326.46.591 1.164.795 2.109l.435 2.023m-6.005.957c-.9-.03-1.643-.096-2.231-.2-.588-.103-1.164-.256-1.728-.457-.483.198-.912.325-1.286.38-.367.056-.916.071-1.647.047l-1.964-.065c-.538-.018-.957-.123-1.256-.316-.299-.193-.556-.504-.772-.935-.476.423-.995.719-1.556.889-.479.146-1.043.208-1.694.187l-1.723-.057.168-2.126 1.723.057c.843.028 1.558-.102 2.145-.391.763-.377 1.176-.975 1.241-1.793l.789.105-.093.569c-.033.213-.06.45-.08.711-.021.266.102.492.369.679.267.187.581.286.943.298l1.482.049c.98.033 1.686-.033 2.117-.196.523-.197.807-.587.854-1.171.01-.125.079-.235.207-.33.077-.055.232-.136.466-.243l.476-.219.004.408-.014.329c-.023.287-.117.665-.283 1.135.29.104.617.196.981.276.364.08.75.145 1.156.195.014-.177-.068-.41-.247-.698s-.264-.482-.256-.581c.011-.136.047-.239.109-.31l.284-.234 1.095-.865c.191.336.32.64.387.914.075.269.097.604.066 1.005l-.233 2.955m-11.355-8.737l-1.889 1.337-1.425-.879-1.403 1.046-1.874-1.131 1.79-1.273 1.513.845 1.461-1.069 1.828 1.123m-2.971 8.144l-7.323-1.2.803-2.064 6.153 1.008c.048-.358.005-.675-.128-.95-.066-.151-.25-.423-.553-.817l1.639-1.653c.417.526.64 1.041.667 1.546.035.506-.127 1.223-.488 2.148l-.771 1.981m-6.164-.956l-1.584-.381c-.882-.212-1.385-.6-1.509-1.165-.141-.624.139-1.55.841-2.778l1.195-2.092c.271-.475.381-.869.328-1.182-.025-.151-.147-.389-.364-.714l2.27-1.541c.214.497.298.957.254 1.38-.051.494-.273 1.086-.668 1.776l-.826 1.446c-.584 1.023-.884 1.758-.9 2.205-.016.358.157.581.519.668l1.584.381-1.141 1.996m-3.75-7.925l-2.57 1.085-1.766-1.719 2.592-1.095 1.743 1.729m-1.093 6.64c-.534.631-1.059 1.105-1.575 1.421-.512.312-1.085.506-1.719.584-.628.08-1.423.044-2.385-.109-.96-.146-1.884-.377-2.772-.693-1.713-.611-2.862-1.285-3.448-2.024-.583-.732-.558-1.47.073-2.216.538-.636 1.178-1.164 1.92-1.584.816-.465 2.089-.994 3.82-1.586l.39.514c-1.352.524-2.285.921-2.798 1.191-.506.272-.916.594-1.229.964-.407.48-.345 1.014.185 1.602.541.586 1.456 1.109 2.746 1.569 1.269.452 2.47.675 3.605.669 1.134-.006 1.895-.238 2.282-.696.24-.284.401-.593.482-.927.088-.332.141-.893.16-1.685l2.499-1.521c.001.757-.034 1.265-.107 1.525-.125.473-.448 1.016-.967 1.629l-1.162 1.372" fill="#bf0000"/></svg>