<svg xmlns="http://www.w3.org/2000/svg" xmlns:xlink="http://www.w3.org/1999/xlink" width="640" height="480" viewBox="-27 -14 38.4 28.8"><g transform="matrix(.711 0 0 .8 -7.8 -2.8)"><path fill="#fff" d="M-27-14h54v36h-54z"/><path fill="#dc171d" d="M-6-14h12v36h-12z"/><path fill="#012a87" d="M-27-2h54v12h-54z"/><g transform="scale(1.5)" id="c" fill="#fff"><g id="b"><path id="a" d="M.167.106l-.167-1.106-.309.951z"/><use transform="scale(-1 1)" xlink:href="#a" width="54" height="36"/></g><use transform="rotate(72)" xlink:href="#b" width="54" height="36"/><use transform="rotate(-72)" xlink:href="#b" width="54" height="36"/><use transform="matrix(-.809 .588 -.588 -.809 0 0)" xlink:href="#b" width="54" height="36"/><use transform="matrix(-.809 -.588 .588 -.809 0 0)" xlink:href="#b" width="54" height="36"/></g><g id="d"><use transform="translate(8 3.314)" xlink:href="#c" width="54" height="36"/><use transform="translate(3.314 8)" xlink:href="#c" width="54" height="36"/></g><use transform="scale(-1 1)" xlink:href="#d" width="54" height="36"/></g></svg>