<svg xmlns="http://www.w3.org/2000/svg" width="640" height="480"><g><path fill="#efb22d" d="M0 0h640v480h-640z"/><path d="M0 480h640v-480z" fill="#e23d28"/><g stroke="#000" stroke-width=".521"><g fill="#fff"><path d="M342.571 150.072c-3.547-1.417-5.837.644-5.721 5.795.113 5.151 2.519 8.114 6.065 6.182l-.344-11.977z"/><path d="M345.685 140.424c-2.954-2.624-5.71-1.499-7.073 3.421-1.363 4.919.068 8.594 3.979 8.046l3.093-11.466z"/><path d="M350.606 131.088c-2.545-3.124-5.425-2.511-7.472 2.1-2.044 4.611-1.156 8.494 2.785 8.66l4.687-10.76z"/><path d="M347.378 176.472c-4.35 1.803-4.809 8.5-2.059 12.621 2.747 4.121 7.784 4.894 10.53 0l-8.469-12.624z"/><path d="M342.343 162.304c-4.121-1.545-7.834 4.682-8.471 10.302-.8 7.083-9.73 9.401-4.806 20.09 1.028-6.825 5.037-10.56 8.24-10.818 3.206-.258 8.015-1.03 10.074-5.409l-5.037-14.166z"/><path d="M355.392 189.864c-4.809 1.288-5.496 8.5-2.062 13.651 2.939 4.41 12.134 3.348 11.905-1.03l-9.843-12.621z"/><path d="M369.017 233.264c.228-4.636-6.409-6.439-9.615-5.538-3.206.902-9.33-.129-10.761-3.992-1.144 3.091.516 6.439 5.153 8.114 3.508 1.268 3.434 4.121 2.403 5.409 2.634.515 10.418.515 12.821-3.992z"/><path d="M365.241 203.648c-4.693-2.318-7.476 1.213-9.271 4.636-2.634 5.023-10.761-1.416-13.508 5.28 3.721-1.803 7.508 2.042 9.271 3.348 5.037 3.735 14.768 2.576 16.142-6.182l-2.634-7.083z"/><path d="M367.986 209.824c-4.693 3.992-6.524 8.757-6.409 11.977.116 3.22 4.121 10.302 8.471 10.689 2.519-5.795 3.778-18.03-2.062-22.666z"/><path d="M348.53 234.68c0-1.932 2.519-2.704 4.234-2.061 1.719.644 4.35 2.576 3.434 4.636l-7.668-2.576z"/><path d="M322.652 224.12c-.456-2.318 2.862-6.31 7.327-4.121 4.462 2.189 5.037 6.439 3.203 8.114l-10.53-3.992z"/><path d="M333.525 228.368c-.344-1.288 2.871-3.86 8.358-2.318 5.493 1.546 6.841 5.525 6.64 8.629l-14.999-6.31z"/><path d="M322.084 224.12c2.862-2.447 1.778-7.084-.803-8.5-4.693-2.576-2.975-9.272-5.953-10.56-2.975-1.288-5.837-3.606-5.953-5.924-1.487 3.219-.572 6.182 1.49 8.242 2.059 2.061-1.603 10.431 1.028 12.621l10.19 4.121z"/><path d="M260.722 222.32c-2.404-4.25-8.128-3.477-10.532-.515-2.404 2.962-2.06 7.341.229 9.272l10.303-8.758z"/><path d="M274.46 216.008c-.916-5.666-6.983-6.31-10.303-4.894-3.32 1.417-5.609 7.083-3.434 11.204l13.737-6.31z"/><path d="M283.62 215.232c2.175-4.765-2.06-11.848-6.868-12.878-4.014-.859-8.757-.837-10.303-5.28-.973 3.864 1.603 6.31 4.579 8.5 2.976 2.189-.573 7.856 4.235 11.075l8.357-1.417z"/><path d="M283.164 215.4c-1.002-3.413 1.03-7.955 5.143-7.636 4.113.318 6.457 3.681 4.644 7.885l-9.787-.248z"/><path d="M292.316 215.656c-.566-3.538 2.012-7.712 6.045-6.748 4.033.964 5.932 4.664 3.615 8.54l-9.66-1.792z"/><path d="M301.412 217.28c-.409-3.566 2.353-7.59 6.338-6.401 3.985 1.19 5.719 4.992 3.23 8.732l-9.567-2.331z"/><path d="M232.334 276.28c-7.67 0-9.543 2.054-10.646 10.946-1.374 11.075 12.02 12.363 10.646-10.946z"/><path d="M235.769 264.688c-11.791-5.023-18.201 15.969-29.877 12.234 4.178 7.469 14.306.013 18.086.773 6.411 1.288 20.262-1.417 11.791-13.007z"/><path d="M228.096 293.408c-5.838-2.962-12.134 7.083-10.99 11.462 1.453 5.562 14.767 1.03 10.99-11.462z"/><path d="M200.853 336.68c3.205 1.027 7.097 3.09 6.41 10.043-.687 6.953-12.363 21.12-22.894 21.894-10.532.773-14.31 15.066-23.353 11.074 8.471-1.8 8.471-12.62 15.11-15.966-4.808-1.933-7.327 10.303-13.508 10.303-6.182 0-9.158 11.074-16.713 10.3-7.556-.77-8.351 13.483-23.467 13.654-11.562.127-25.871 15.323-31.022 8.757 11.218-1.803 15.745-8.797 22.437-16.486 10.761-12.36 22.895-6.823 27.016-17.77-4.923 3.733-10.646 5.537-16.255 5.41-7.041-.163-14.767 12.62-22.666 6.953 4.579-.643 7.556-2.833 12.363-8.5 4.924-5.803 12.148-2.053 17.858-7.983 8.929-9.274 16.599-1.547 25.184-13.137-2.404-1.287-7.556-.387-12.363 2.447-4.808 2.833-10.99-1.933-16.484 1.417.687-7.597 13.508-3.25 21.521-8.5 9.044-5.923 16.542-4.187 23.696-3.477-9.959-.063-13.851-10.69-27.588-7.6-5.991 1.35-10.761-9.27-16.713-3.863.172-3.99 6.411-7.211 12.821-3.347 6.41 3.863 8.994-3.381 21.75 5.667 5.266 3.733 14.309-2.32 20.033 1.673-.744-2.447-4.007-3.993-7.841-3.67 2.404-5.537 17.915-4.83 24.669.71z"/><path d="M211.044 328.304c-5.037-4.379-12.02.903-16.828-1.159 0 3.605 1.603 9.015 6.868 11.075 1.603-1.287 8.814-8.37 9.959-9.916z"/><path d="M218.944 315.816c-7.899-4.507-9.272 6.697-15.454 4.379.229 3.22 2.519 7.212 7.556 8.114l7.899-12.492z"/><path d="M223.637 305.64c-11.676-5.151-13.165 7.469-20.033 5.022 1.603 4.379 11.447 6.697 16.484 5.151l3.549-10.174z"/><path d="M239.659 250.392c-3.091-4.894-9.616-.901-10.646 4.894-1.03 5.795 1.488 13.909 5.838 12.106l4.808-16.999z"/><path d="M247.559 234.936c-5.38-1.416-11.562-.773-10.875 5.151-2.061 1.03-2.633 8.629 2.976 10.302l7.899-15.454z"/><path d="M251.108 230.944c-5.266-6.954-11.138-6.793-14.423-3.864-6.067 5.409-11.963 2.318-12.134 7.727 3.663-3.155 6.868.644 9.845-.515 2.976-1.159 5.151 5.28 13.394 2.576l3.32-5.924z"/><path d="M238.4 334.88c.801 1.673 5.724 2.447 8.128-.387 3.186-3.757-.343-14.167-5.38-14.94-5.037-.773-5.495 11.72-2.747 15.326z"/><path d="M232.676 335.136c7.211 2.96 10.303-3.737 6.41-7.985-1.03 1.417-4.808 6.568-6.41 7.985z"/><path d="M205.66 346.208c-1.374 4.637-8.471 5.41-16.484 19.834-8.014 14.423-15.683 8.37-17.629 18.286 9.616-8.757 17.168-2.94 22.894-11.59 8.7-13.137 15.864-11.25 19.232-20.09 4.808-12.62 25.871-12.363 27.016-32.195-7.097-1.546-29.535 19.832-35.029 25.755z"/><path d="M386.304 151.488c9.158 3.348 9.387 16.742 19.917 21.12 10.534 4.379 11.565 14.938 20.148 12.363-8.012-2.447-7.44-12.878-15.796-15.454-9.801-3.021-13.508-19.833-21.295-22.408"/><path d="M428.316 221.416c1.603 4.121 1.375 11.462-4.35 13.394 3.09 2.189 7.668.129 10.187-4.636-3.778 9.401-1.259 17.901 4.693 19.575-2.862-6.568 3.55-9.659 1.49-13.909 3.778 1.803 7.096 7.598 6.981 11.204 4.924-6.182-3.662-14.424-2.059-20.218l-16.942-5.409z"/><path d="M369.017 287.608c-5.609-5.538-8.003 1.448-10.761-.966-2.575-2.254-6.009-2.576-7.324-.322 4.809.193 2.459 4.379 11.79 5.409-9.33.708-7.612 12.428-13.852 11.848 6.64 7.083 10.074-6.31 15.455-4.121-1.603.515 2.519 4.765-.344 10.431 4.637-.129 6.524-7.341 7.099-11.075l-2.062-11.204z"/><path d="M245.497 347.752c-2.061-1.93-8.014-2.833-10.303-1.287-2.289 1.543-1.488 1.93 1.259 2.19 2.748.257 6.295 5.257.343 5.537-2.747.127-1.831 7.597-7.556 8.114 2.347 3.22 9.044 1.093 11.447-2.447-.458 2.897 2.976 5.537 1.603 9.014 4.236.517 1.774-9.657 8.471-9.143-2.748.387-1.603 7.34 3.205 5.537-2.862 1.547-1.374 5.28 1.832 4.38-2.06.773-2.748 3.733.114 5.41 2.748-4.25-.343-19.446-10.417-27.303z"/><path d="M494.827 205.656c8.762 0 15.863-7.992 15.863-17.85 0-9.856-7.102-17.848-15.863-17.848-8.764 0-15.867 7.992-15.867 17.848 0 9.858 7.102 17.85 15.867 17.85z"/><path d="M411.947 227.216c4.809-5.151 12.137-7.727 17.17-3.864 5.037 3.864 21.751 8.5 29.994 2.061 8.24-6.439 12.134-9.788 15.796-9.015 2.75 4.636 6.068 6.826 10.19 7.212 1.259 1.545 5.724 2.833 8.243 2.447 3.662 1.03 8.127-.257 11.674-4.636 5.496.901 10.646-3.735 12.592-10.689 5.837-.773 6.181-8.114 2.519-13.007-3.434-.773-.8-13.78-13.28-11.204 5.268 3.606 1.259 10.818 5.612 14.166-2.978 0-6.812 1.417-7.728 6.439 1.144-3.477-.172-5.795-.975-6.568.116-2.962-5.721-10.238-11.218-7.598 3.95.966 1.719 8.114 4.581 10.818-2.062.129-4.237 1.288-5.496 3.348-1.487-2.962-6.753-6.053-9.958-6.31 0-1.03-.172-3.091-.572-4.121-1.431-3.091-2.634-6.761-2.062-11.462-2.747 3.348-5.037 7.985-6.409 11.333-4.35-3.348-15.111 1.545-20.148 2.833-5.037 1.288-21.979-1.803-25.872-6.439-3.89-4.636-11.446-7.469-18.542-9.787-9.76-3.187-9.846-15.196-20.607-23.438-.228 14.939 19.92 62.331 24.498 67.482z"/><path d="M299.762 341.056c8.471 0 15.339-7.727 15.339-17.257 0-9.53-6.868-17.256-15.339-17.256s-15.339 7.726-15.339 17.256c0 9.53 6.868 17.257 15.339 17.257z"/><path d="M263.125 327.792c3.091 4.508 8.356 4.251 10.532 3.864 1.832 5.407 7.669 5.28 10.188 8.24 2.519 2.963 11.103 2.707 13.621 1.03-2.287-.257-5.265-1.8-8.127-4.507-3.455-3.263-1.832-9.787-4.579-12.105 2.06-2.576 2.404-6.825 1.946-8.5 2.175-1.417 3.777-3.735 4.007-4.894 3.778-.258 7.097-2.447 8.471-4.121 1.947 2.06 6.868-.644 9.503 2.833.572-8.5-6.64-13.007-11.449-10.174-1.947-1.159-7.097-.386-8.013 1.159-1.603-.773-6.067 1.803-8.128 3.477 2.289-1.416 2.633-5.666 1.717-7.212 1.946-.901 4.121-3.863 4.35-6.053 2.748.515 6.868-1.546 8.699-1.03-2.975-4.379-7.897-5.924-12.934-5.538-5.209.322-7.44 4.443-8.127 8.886-3.091 2.06-4.121 9.014-2.976 11.462-1.775-.064-3.434 1.868-4.121 2.962-2.404-1.159-5.838-1.996-8.299-1.996"/><path d="M260.494 298.56c-1.03-3.348.334-6.363 1.03-9.014 1.774-6.761.687-8.5-4.693-7.598-.458 3.219 2.289 13.78 3.663 16.613z"/><path d="M256.548 282.328c1.374 1.545 6.239 2.254 6.754-2.64.591-5.618-1.431-7.792-5.781-5.603-.343 1.288-.745 6.568-.973 8.242z"/><path d="M257.579 273.896c1.832.837 5.781 2.511 7.956-2.254 1.825-3.996-.572-7.083-4.35-6.826-.916 1.159-2.748 5.28-3.607 9.08z"/><path d="M260.956 264.432c.458 1.545 5.151 6.697 8.585 2.962 3.434-3.735 3.434-9.272-1.717-11.333-1.374.257-5.495 5.666-6.868 8.37z"/><path d="M267.819 256.064c1.03 3.219 4.235 8.757 10.188 6.181 5.953-2.576 3.434-10.946.687-12.621-1.603.129-8.128 3.477-10.875 6.439z"/><path d="M278.699 249.624c-.458 2.833 0 10.56 8.127 10.431 8.127-.129 5.839-10.818 3.778-12.363-3.32 0-8.929.129-11.905 1.932z"/><path d="M290.944 248.072c-.916 2.189-2.979 16.6 12.936 12.621 2.059-.515 7.44-13.78-12.936-12.621z"/><path d="M299.641 249.36c-1.6 1.803 2.519 16.355 13.28 13.908 10.761-2.447 1.719-16.226-13.28-13.908z"/><path d="M308.8 251.552c-1.716 3.992.862 15.84 14.139 15.84 12.033 0-.631-15.582-14.139-15.84z"/><path d="M319.218 255.032c-.862 2.213-1.917 14.774 13.737 15.84 11.334.773 8.587-17.257-13.737-15.84z"/><path d="M336.05 260.312c-1.944 3.864-4.006 13.522 13.165 14.295 11.002.495 4.237-14.038-13.165-14.295z"/><path d="M350.357 263.272c-2.519 3.864-.664 11.442 5.721 12.878 8.015 1.803 9.158-6.697 3.665-10.818-5.496-4.121-9.387-2.061-9.387-2.061z"/><path d="M358.144 265.072c-1.831 3.606-.696 12.363 11.446 12.363 2.519 0 12.137-11.075-11.446-12.363z"/><path d="M264.164 433.016c9.835 0 17.808-8.97 17.808-20.034 0-11.066-7.973-20.037-17.808-20.037s-17.808 8.97-17.808 20.037c0 11.063 7.973 20.034 17.808 20.034z"/><path d="M394.773 141.704c-1.375 1.545-4.234 6.181-4.809 7.984-5.953 20.09 9.938 35.097 19.233 56.664 7.327 16.999 6.412 43.786-5.037 60.786-3.917 5.815-2.747 7.469-7.784 13.394-1.932 2.273-4.121 5.151-3.434 13.394 3.206-1.288 7.784 2.061 8.699 4.894 2.29-1.288 5.496-.773 6.64.773 3.89-2.06 7.096-1.03 10.53 3.091 2.978-.515 6.184 0 9.158 3.606 1.603-3.606 4.809-4.894 7.096-4.121-.228-4.636 3.893-7.984 7.556-6.181-1.144-6.182 3.893-10.818 8.703-9.015 4.119-3.606 12.361-3.863 16.483 1.545-7.327-2.318-7.096 6.439-13.28 5.667 1.603 5.151-2.519 8.114-6.637 9.787 2.631-1.417 5.493-3.091 6.409-1.288 2.29-2.253 6.868-1.417 8.015-.258 3.031-1.094 5.953-.258 7.324 3.863 4.121 2.833 6.868 10.045 3.893 15.454-.916-5.666-4.35-5.409-5.724-7.727-3.206 1.288-6.412 1.288-7.327-1.03-1.831 2.061-8.012 3.864-10.758.773-1.031 4.636-4.581 8.5-8.703 8.5 1.147 3.606-2.059 9.789-4.578 12.878 3.893 2.317 2.747 7.47 1.831 10.56 5.953 1.03.916 6.953 11.218 10.817-5.034 1.803-14.88 0-16.255-6.953-5.037-.257-8.471-5.923-8.24-11.85-3.893-4.12-4.465-10.043.916-14.164-4.581 1.545-7.099-6.697-13.739-3.348-3.301 1.666-12.018-1.159-11.903-4.636-1.375 2.576-9.73 1.546-10.877-2.833-2.747 1.674-9.158-1.159-9.043-5.409-3.55 1.803-8.356-1.417-8.127-5.538-3.319-.515-3.662-3.863-3.434-6.697-2.978-1.545-2.175-4.765-1.031-8.628-2.059-2.576-1.144-6.182.459-9.53-2.29-2.576-1.831-5.666-1.147-9.272-10.99-1.03-24.756-4.012-56.32-14.938-47.621-16.484-60.442 22.15-49.911 46.362 12.151 27.935-1.374 34 2.748 54.863 4.35 1.03 6.639 5.15 6.411 9.53 2.575.127 4.407 2.83 3.491 7.983 2.175-.45 4.98.257 6.812 2.317 1.603-3.347 6.868-4.12 9.616-.257 5.951-.517 8.929 4.893 8.7 11.59 3.203 6.44 2.059 14.297-1.375 19.317.344-2.703 0-6.567-.113-8.883-.213-4.263-5.496-5.153-4.924-8.63-2.747.257-5.38-1.417-6.296-3.733-1.603 1.543-3.892 2.06-5.838 1.287 3.091 1.547 5.495 7.727 4.579 11.846 1.603 3.093 1.259 8.76-.687 11.206-.916 5.02-4.35 6.823-8.814 4.633 2.519-1.8 3.434-5.02 3.32-7.727-1.603-1.543-2.404-4.507-2.519-6.31-4.464.773-10.646-3.477-11.786-5.157-9.835 0-17.808 8.97-17.808 20.037-.458-4.123-5.091-8.183-4.519-11.66-2.747-9.53 1.145-18.417 12.363-20.217-1.374-3.607 3.434-7.343 1.603-11.463-2.34-5.263-6.639-12.106-13.05-20.09 3.892-7.47 2.747-17.514.458-23.696-3.288-8.877-6.411-6.697-18.087 7.726-19.029 23.506-44.416 17-66.853 32.454-5.962 4.107-11.905 5.667-5.495-1.543 6.411-7.213 23.353-14.423 34.342-20.606 20.58-11.577 38.005-30.908 44.874-68.512 16.14-88.368 75.548-59.24 113.095-42.756 35.25 15.477 28.848-19.575 10.99-40.695-21.463-25.386-17.17-45.331-7.096-61.301 18.086-2.833 52.774 4.25 45.79 11.076z"/><path d="M458.539 358.784c10.821 0 19.594-9.866 19.594-22.04s-8.774-22.043-19.594-22.043c-10.821 0-19.594 9.869-19.594 22.043s8.774 22.04 19.594 22.04z"/></g><g fill="none"><path d="M383.787 142.728c-4.35 21.636-.687 31.423 5.724 40.953 13.247 19.697 23.81 64.649 8.699 94.008"/><g><path d="M406.677 252.328c1.831-.773 5.265-3.219 6.068-7.469"/><path d="M408.05 242.928c.572-3.735 5.721-5.344 5.837-9.336"/><path d="M408.164 228.368c-.344-3.864 5.153-7.341 4.35-11.204"/><path d="M405.191 214.464c-.459-2.189 4.578-6.31 3.206-9.787"/><path d="M401.415 200.944c-1.031-2.447 2.403-5.28.916-7.856"/><path d="M395.918 190.12c-.344-1.674 1.775-5.344.631-7.533"/><path d="M390.421 177.376c.456-.644 2.29-2.189 1.544-4.121"/><path d="M386.645 168.04c.744-.451 2.975-1.224 2.69-3.091"/><path d="M272.057 410.856c-4.579-1.803-10.303.773-11.447 5.153"/><path d="M264.043 420c.572-4.377 6.525-6.31 8.356-4.25-3.777-2.317-5.609 5.923-2.289 6.183"/><path d="M300.907 318.136c-2.747 1.546-3.547 7.212 0 11.463"/><path d="M305.024 319.424c-1.944 1.803-1.831 7.212 1.031 8.5-2.403-1.932 0-5.28 1.719-5.409 1.716-.129 2.859 2.189.8 4.507"/><path d="M465.863 332.168c-6.409-1.93-11.561 6.44-5.724 13.91-.113-7.213 4.465-11.977 10.074-10.69"/><path d="M467.634 340.376c-1.576 0-2.462 1.387-2.462 2.737 0 1.417 1.087 2.77 2.862 2.77 1.147 0 2.062-1.48 2.062-2.64"/><path d="M490.24 182.264c1.031 4.379 6.412 6.182 10.646 5.151"/><path d="M500.885 184.584c-3.319.129-6.065-3.348-5.837-6.31 0 2.189 4.465 3.22 5.837 1.803"/><path d="M273.657 331.656c-.916-2.577 2.748-5.152 2.862-7.599.115-2.447 4.121-4.378 8.242.258"/><path d="M282.816 296.888c-.801.386-1.488.901-2.175 1.159"/><path d="M290.716 310.92c-.973.065-2.976-.064-4.064-.902"/><path d="M286.713 315.816c-.801.451-2.576 1.224-3.607 1.482"/><path d="M247.445 393.6c-.115 2.32 1.946 5.667 3.091 6.697"/><path d="M256.377 388.064c-1.145 1.93-1.831 5.28-1.145 7.597"/><path d="M273.429 395.792c-2.061-1.547-.687-5.54-.916-8.114-.229-2.577 2.404-6.697 7.556-3.22"/><path d="M254.201 381.112c2.061-.387 4.236-.26 5.609.383"/><path d="M280.299 373.768c-.916 1.417-1.145 2.963-1.259 3.993"/><path d="M289.913 373.512c-1.603 0-2.976 1.287-3.663 2.577"/><path d="M267.705 307.576c1.832.709 6.582 3.992 6.754 7.405"/><path d="M287.168 290.832c-5.609-.129-7.784-6.568-3.548-6.568"/><path d="M297.244 299.456c-2.175 1.03-1.144 5.28 1.947 7.341"/><path d="M283.847 339.896c-1.088-1.543.343-6.05 3.892-4.7"/><path d="M292.203 386.904c.228-3.927 4.636-6.247 6.411-1.803"/><path d="M275.947 398.104c-.287-4.313 1.66-5.73 3.377-5.987 1.717-.257 4.179 1.35 5.324 4.183"/><path d="M241.835 401.328c.229-2.577 2.175-5.28 4.236-4.893"/><path d="M451.321 286.968c-1.49 1.224-2.462 6.697 3.203 7.212"/><path d="M442.624 295.984c0 .644.744 1.545 1.203 1.932"/><path d="M469.639 306.288c-1.487-1.288-5.324 3.928-1.831 7.727"/><path d="M433.237 349.56c-.859-3.67 2.175-4.637 5.037-3.863"/><path d="M425.913 323.544c1.716-1.288 3.434-2.704 5.609-3.348"/><path d="M424.996 337.704c0-3.09 1.372-5.663 2.631-6.437"/><path d="M435.065 302.168c-.228 3.735 1.147 7.341 2.178 9.272"/><path d="M462.315 302.424c-1.662.58-3.15 1.288-3.778 2.833"/><path d="M460.48 312.984c.803-.773 1.719-1.674 2.119-2.318"/><path d="M503.751 200.552c0 3.606-4.006 5.537-6.637 3.219"/><path d="M512.455 200.68c1.772 1.545 7.896.065 6.465-3.927"/><path d="M505.01 221.416c-1.259-.258-3.434-1.803-4.35-3.091"/><path d="M517.604 210.728c-2.059.515-3.434 0-4.465-.515"/><path d="M485.092 223.608c1.144 0 3.89-.515 5.781-1.609"/><path d="M481.657 200.816c-1.487-.193-2.578.129-3.434.773"/><path d="M504.725 207.12c-.4 1.61-1.431 4.121-2.69 5.216"/><path d="M477.767 212.792c2.862-1.417 6.412 9.53 13.28 5.666"/><path d="M491.62 207.12c-.916 1.417-1.487 3.606-1.603 5.538"/></g><path d="M354.709 190.384c.916-.129 2.519-.515 2.862-1.803"/><path d="M236.914 310.28c3.434 2.189 5.839 5.924 4.35 11.462"/><path d="M394.311 178.536c1.031.773 4.924.773 7.099-.129"/><path d="M404.16 181.112c-.116 1.803.344 8.628-2.747 10.045"/><path d="M402.56 190.256c2.862 1.03 8.587.644 10.418-5.28"/><path d="M408.967 189.992c1.487 2.576 1.944 7.598-2.519 10.302"/><path d="M410.112 194.248c3.319 1.288 10.99 1.416 10.187-5.924"/><path d="M417.671 194.248c2.29 3.606 12.365 7.856 10.761.386"/><path d="M408.398 204.672c3.89 1.03 9.387-1.932 7.096-9.658"/><path d="M426.482 198.88c.572 2.962 13.392 6.053 11.677-.644"/><path d="M435.755 202.104c2.406 6.181 15.111 5.666 11.105-2.576"/><path d="M444.8 205.96c2.519 3.477 13.739 1.417 9.274-6.954"/><path d="M453.952 205.832c6.984 5.924 15.111-2.576 6.296-8.758"/><path d="M464.256 203.904c6.184 5.538 13.739-4.508 8.358-7.341"/><path d="M415.374 201.584c1.947.644 6.068.386 6.984-3.606"/><path d="M420.814 200.68c-.228 5.86 8.53 8.114 10.761 1.353"/><path d="M428.658 205.704c1.603 3.863 9.271 5.409 10.53-.129"/><path d="M437.931 208.152c1.259 3.864 7.899 3.477 9.73-.515"/><path d="M445.255 210.216c2.059 5.022 10.53 5.022 12.477-2.318"/><path d="M456.249 211.112c3.319 2.318 10.418 1.417 9.843-5.795"/><path d="M464.718 210.472c4.921 4.508 11.905.129 8.471-7.469"/><path d="M472.846 216.392c2.634-.515 4.006-6.439 1.259-7.984"/><path d="M411.833 217.424c5.493-3.348 6.524-9.014 2.747-14.552"/><path d="M416.526 211.76c3.434 2.318 9.958-.129 11.103-5.795"/><path d="M421.22 212.4c1.944 2.833 2.287 6.31-.231 9.53"/><path d="M422.82 216.008c6.065-4.25 13.621 3.606 8.012 8.371"/><path d="M429.803 215.624c1.375-.386 3.778-3.219 4.006-6.439"/><path d="M432.548 218.584c2.519-2.962 19.692 3.091 8.815 9.272"/><path d="M440.562 210.472c3.319 1.417 5.037 6.697 0 8.5"/><path d="M444.914 223.352c3.662-4.25 15.111-1.545 10.99 3.864"/><path d="M453.156 221.672c2.059-7.856 14.308-2.962 10.303.257"/><path d="M450.638 213.816c.344 1.546.456 5.409-1.831 7.47"/><path d="M460.942 212.272c.456 1.288.344 3.735-.687 5.28"/><path d="M468.722 212.4c.687 1.416 1.831 4.121-.687 6.31"/><path d="M370.738 153.16c.113 7.34 2.403 12.234 11.218 7.598"/><path d="M373.483 161.92c-4.35 6.568.572 13.651 9.158 6.568"/><path d="M360.085 165.136c5.953 7.212 16.599 1.932 9.73-9.015"/><path d="M377.031 171.32c-1.147 7.083 4.006 8.5 8.24 5.28"/><path d="M354.823 166.296c1.084 7.121 7.556 12.75 13.852 8.371"/><path d="M362.61 176.088c0 10.174 12.477 11.333 15.339.773"/><path d="M373.483 183.296c4.006 9.272 12.705 5.538 15.568-.129"/><path d="M364.665 168.488c1.603 4.507 4.809 9.53 12.249 5.795"/><path d="M341.774 166.296c1.031 3.735 6.984 8.242 13.852 3.091"/><path d="M346.005 171.064c-3.665 6.053 3.662 11.719 12.477 2.704"/><path d="M350.357 178.536c1.487 8.5 4.462 15.326 15.223 4.379"/><path d="M360.199 187.288c3.893 5.409 9.846 8.757 15.455-.386"/><path d="M379.776 188.832c-.344 6.439.8 9.658 5.265 9.401 3.52-.203 6.868-3.348 8.815-6.697"/><path d="M384.242 198.24c-.116 7.341 5.034 13.136 14.652 5.667"/><path d="M388.245 206.864c-1.831 5.538 3.662 14.552 14.423 9.916"/><path d="M365.468 192.184c-.684 7.083 5.153 11.848 14.539 2.704"/><path d="M370.048 200.04c.344 5.795 6.181 12.75 14.768 2.704"/><path d="M374.165 207.384c-.687 9.916 7.44 12.75 14.308 5.151"/><path d="M361.92 200.04c1.831.129 3.319-1.674 4.234-2.962"/><path d="M365.81 207.248c1.603.386 4.353-1.288 5.268-3.348"/><path d="M369.82 218.968c1.831 2.189 8.012.644 8.812-2.318"/><path d="M376.69 218.84c3.434 9.014 12.59 8.628 16.368-1.545"/><path d="M391.339 220.904c1.716 5.28 6.068 8.628 13.165 6.825"/><path d="M394.773 226.312c-4.006 7.341 1.259 15.969 10.187 7.469"/><path d="M396.949 237.256c-.456 4.636 3.321 9.916 8.471 10.56"/><path d="M380.004 223.736c-1.375 10.431 5.265 15.454 13.623 9.916"/><path d="M370.276 228.76c2.175 1.932 6.068 2.189 9.73.644"/><path d="M384.469 235.456c-2.062 8.758 5.953 15.068 12.821 5.28"/><path d="M373.369 230.176c.116 4.507 4.009 9.401 10.761 7.984"/><path d="M403.015 247.176c-4.581 3.477-5.496 9.658.916 13.65"/><path d="M391.794 245.368c.231 5.28 2.406 8.242 7.556 8.757"/><path d="M385.045 242.664c-6.868 7.083-.116 15.326 8.012 8.371"/><path d="M389.852 253.224c-2.29 8.114 6.296 13.007 10.874 4.765"/><path d="M375.659 235.968c-2.519 7.985.687 13.265 6.524 12.75"/><path d="M366.613 234.424c.344 4.765 4.006 6.439 8.127 5.409"/><path d="M369.244 239.448c-3.09 6.697 1.603 10.302 7.787 7.727"/><path d="M395.804 262.112c-1.031 4.25-.459 7.341 5.15 8.758"/><path d="M396.146 268.168c-6.756 3.477-7.327 10.818-2.062 15.582"/><path d="M390.706 259.992c-3.547 3.606-2.862 9.851 1.031 12.298"/><path d="M360.661 236.488c-3.893 4.315-.172 16.226 8.412 9.724"/><path d="M382.983 251.552c-5.268 4.894-2.862 13.78 5.837 11.333"/><path d="M374.279 247.816c-2.747 8.758-.113 11.848 6.068 11.977"/><path d="M354.937 236.096c-4.693 3.992-3.434 9.658-1.372 12.234 2.059 2.576 5.95 1.417 7.209-1.932"/><path d="M345.088 232.624c-5.265 7.598 0 16.613 7.443 13.909"/><path d="M373.255 255.16c-5.381 2.189-9.485 7.686-6.184 12.492 1.947 2.833 10.418 3.22 12.821-7.727"/><path d="M363.52 248.072c-3.09 5.023-2.062 9.788 3.662 12.234"/><path d="M363.179 257.48c-3.321 2.061-5.496 4.508-4.693 9.015"/><path d="M355.74 249.624c-1.259 6.053.228 9.788 3.547 11.59"/><path d="M355.627 256.832c-5.153-.386-7.784 2.06-6.068 7.727"/><path d="M350.016 258.248c-5.037-2.061-5.84-6.954-3.665-12.106"/><path d="M345.664 253.744c-5.496.258-7.899 3.348-7.899 7.598"/><path d="M338.219 229.656c-4.006 1.932-5.265 7.985-3.778 11.333 1.49 3.348 6.184 3.606 9.046 1.417"/><path d="M327.004 224.896c-3.662 4.636.572 13.651 7.099 11.462"/><path d="M317.618 221.288c-3.434 5.409.344 14.424 9.158 11.848"/><path d="M327.232 258.248c-.916-6.439 5.037-10.689 12.365-2.318"/><path d="M336.05 242.928c-2.175 2.189-3.203 5.666-2.862 8.5"/><path d="M308.231 218.2c-3.778 7.212.803 13.78 8.93 11.204"/><path d="M329.408 236.096c-5.381 6.053-3.55 12.106.456 15.582"/><path d="M325.973 243.184c-8.127.129-8.584 10.689-1.944 14.038"/><path d="M319.794 232.624c-3.319 2.576-4.35 9.658 1.375 12.492"/><path d="M319.566 248.464c-3.434-1.803-7.556.386-7.212 4.894"/><path d="M314.411 248.592c-3.09-8.242-12.134-6.825-11.33 1.674"/><path d="M316.928 238.416c-1.944.386-5.837 1.674-7.324 5.023"/><path d="M310.18 229.144c-3.662 4.636-.803 10.174 2.175 11.333"/><path d="M299.307 216.136c-.687 5.538 1.259 8.242 7.44 7.727"/><path d="M301.476 223.224c-2.406 6.697.8 9.658 6.981 9.272"/><path d="M302.848 231.464c-3.662 4.894-1.144 10.174 2.403 12.363"/><path d="M301.134 237.648c-6.524-.902-7.556 7.598-5.381 11.59"/><path d="M295.865 215.496c-4.005 1.932-6.295 7.598-4.12 11.075 2.176 3.477 6.526 2.318 8.929.515"/><path d="M293.12 228.112c-3.319 5.666-.344 9.916 3.206 11.59"/><path d="M280.299 214.848c-2.633 3.091-1.03 9.402 5.38 9.53 5.161.104 7.784-5.409 6.182-9.272"/><path d="M284.764 224.376c-2.06 5.151-.801 10.689 6.983 9.787"/><path d="M295.068 242.28c-4.808-2.447-11.218 0-8.471 6.439"/><path d="M285.909 233.136c-1.946 3.091-1.259 7.469.916 10.174"/><path d="M285.568 241.376c-3.205.644-6.296 2.576-4.35 8.242"/><path d="M280.754 244.984c-4.121-1.417-9.387 1.932-6.182 6.697"/><path d="M273.892 247.176c-3.549-.644-7.784 3.606-4.35 7.856"/><path d="M268.167 251.552c-3.205.902-6.983 5.023-3.663 8.242"/><path d="M284.309 231.336c-4.579 2.318-5.037 8.114-2.862 12.363"/><path d="M279.495 220.648c-6.868 2.962-6.754 13.265.801 16.484"/><path d="M277.092 234.808c-4.121 2.704-4.922 7.856-2.175 11.204"/><path d="M269.881 216.784c-2.748 1.03-2.519 10.56 4.808 10.302"/><path d="M262.329 220c-5.495 4.121 1.145 14.552 10.074 7.083"/><path d="M267.477 229.656c-.801 4.25.229 8.886 6.296 9.402"/><path d="M267.819 235.328c-4.35 1.803-5.151 11.848 2.747 12.621"/><path d="M253.973 226.184c-5.609 5.795 4.579 10.818 8.357 2.447"/><path d="M246.187 235.84c-2.748 3.735 6.868 13.522 11.104-2.833"/><path d="M258.318 232.752c.229 3.863 2.289 6.181 6.525 6.439"/><path d="M264.732 242.928c-6.754 1.159-8.929 10.689-1.374 12.75"/><path d="M252.252 241.64c-.229 3.606 3.091 6.568 6.868 5.924"/><path d="M262.556 255.416c-6.181 1.545-6.983 10.56-1.488 10.045"/><path d="M258.204 273.832c-5.152-1.738-5.266-8.629-.687-11.204"/><path d="M253.973 267.776c-4.35 2.962-2.633 10.045-.343 11.075 2.289 1.03 4.121-.257 4.35-2.447"/><path d="M257.636 286.32c.458 3.348-10.589 2.061-4.922-8.37"/><path d="M252.651 286.904c-3.72 6.568 2.347 11.912 6.182 6.311"/><path d="M253.17 294.824c-1.488 5.28 4.178 9.08 7.841 4.959"/><path d="M240.804 245.368c-2.061 4.765 8.242 6.568 8.929-3.22"/><path d="M237.945 252.456c-2.06 9.272 13.508 7.341 9.501-4.636"/><path d="M247.787 254c2.175 1.417 8.7 1.545 10.303-6.31"/><path d="M253.397 254.256c.458 2.447 2.404 5.409 4.235 6.31"/><path d="M245.959 256.704c-.687 5.023 3.777 9.144 8.929 8.758"/><path d="M246.756 261.6c-2.518 3.864-3.32 11.333 4.579 11.848"/><path d="M234.738 262.888c-1.259 3.992 6.182 8.114 10.532 1.545"/><path d="M232.448 273.056c-.63 3.027 6.067 7.083 9.845-5.795"/><path d="M239.317 273.832c1.603 3.219 6.983 5.795 10.303-.515"/><path d="M244.238 277.184c-1.374 4.507 2.404 8.757 6.983 7.469"/><path d="M235.655 276.152c-.916 6.439 5.724 10.174 9.845 6.825"/><path d="M231.303 278.984c-1.946 8.242 7.441 11.333 10.99 5.151"/><path d="M239.893 286.584c.344 4.636 6.754 8.628 11.791 4.765"/><path d="M228.444 290.448c-.458 2.06 7.212 4.121 8.356-3.091"/><path d="M232.91 292.248c1.831 5.28 8.013 6.568 11.562.129"/><path d="M242.411 294.952c.801 4.894 6.411 7.598 11.333 4.25"/><path d="M255.801 301.136c-1.259 6.568 4.808 11.848 8.585 8.242"/><path d="M246.073 299.976c-1.831 7.212 6.182 11.333 10.646 7.341"/><path d="M236.459 296.368c-.458 6.697 4.236 10.689 9.616 7.727"/><path d="M226.268 297.016c-1.603 4.379 6.868 7.985 10.875 4.25"/><path d="M220.999 308.992c2.175 2.833 9.73 0 10.417-6.31"/><path d="M229.362 307.312c2.747 3.606 9.272 5.538 11.905-2.189"/><path d="M238.976 309.12c-.115 5.538 8.7 9.53 11.562-.644"/><path d="M260.892 310.472c-.801 2.705 1.088 7.018 5.037 7.533"/><path d="M253.625 308.8c-.572 3.091 3.434 7.404 7.67 5.666"/><path d="M262.101 315.752c-1.145 3.348-.172 8.177 3.834 8.113"/><path d="M262.5 322c-2.976 2.833-1.717 7.856 2.576 8.05"/><path d="M260.956 326.76c-4.236 3.218-2.747 10.302 2.862 9.918"/><path d="M248.135 313.112c0 6.954 7.669 7.984 9.158 1.545"/><path d="M254.315 318.776c-1.145 4.121 1.831 8.114 6.525 6.954"/><path d="M255.232 368.488c1.031 1.677 5.266-1.157 4.121-3.99-1.145-2.833-5.631-1.293-5.151 1.673"/><path d="M258.318 363.336c.572-5.667-5.38-6.567-6.868-1.673"/><path d="M253.625 358.832c1.488-2.833-3.548-6.697-5.609-2.577"/><path d="M249.849 354.576c1.374-4.123-4.35-5.923-4.808-2.19"/><path d="M243.783 346.976c.687-2.06 7.097-.773 4.35 3.477"/><path d="M253.056 355.608c2.519-2.577-1.717-7.857-4.35-5.923"/><path d="M269.995 363.464c-2.004.257-4.065 1.737-2.576 6.503 1.032 3.307 5.438 3.477 6.067 1.48"/><path d="M267.079 365.848c-1.946-1.417-6.182.967-4.236 5.603 1.465 3.49 5.151 2.06 5.724.257"/><path d="M256.142 372.48c.972 1.93 5.837 1.097 6.696-1.03"/><path d="M259.463 366.104c1.03-.773 2.919.19 3.32 1.157"/><path d="M259.122 334.36c-3.32 2.447-1.259 9.917 3.892 7.983"/><path d="M258.091 340.416c-2.633 2.317-.229 9.53 4.693 6.827"/><path d="M258.894 347.24c-1.831 2.06-.057 7.79 4.694 6.697"/><path d="M258.204 350.072c-1.031-.517-3.721-.13-4.866 1.8"/><path d="M255.232 323.992c-2.518 2.704-1.317 8.243 3.377 8.693"/><path d="M254.315 329.656c-3.607 1.997-3.607 10.043 3.605 10.366"/><path d="M254.03 338.736c-2.003 1.803-1.03 8.757 4.121 7.853"/><path d="M255.687 346.336c-.745.837-.859 2.963-.229 3.863"/><path d="M253.397 343.696c-1.831.063-4.236 1.547-4.866 3.67"/><path d="M245.212 339.896c.687-2.06 6.354-1.93 6.754 4.123"/><path d="M252.537 336.808c-.801.193-2.346 1.03-2.747 2.77"/><path d="M250.076 317.944c-2.462 2.511-3.663 10.432 3.834 11.976"/><path d="M245.099 334.296c0-2.127 5.095-3.93 6.868-.773"/><path d="M241.835 322.768c.744 1.61 4.292 3.8 6.468 1.997"/><path d="M223.403 310.152c-.114 3.735 2.633 7.083 6.411 6.568 3.777-.515 4.579-4.25 3.434-6.697"/><path d="M230.386 316.848c-2.519 3.477.572 8.371 3.434 6.954"/><path d="M233.252 314.4c1.488-.644 6.411-1.417 7.899 1.159"/><path d="M217.337 315.432c-1.145 1.932 5.953 3.864 8.356.129"/><path d="M223.289 317.488c-.229 2.576.916 6.954 6.754 5.151"/><path d="M230.962 326.632c.916-2.189-3.434-5.795-6.754-1.803-3.32 3.992.458 8.5 2.519 6.953"/><path d="M215.737 318.008c-1.717 3.348 4.922 9.466 8.7 3.8"/><path d="M211.328 323.8c-2.404 2.769.572 7.857 4.179 6.31 3.606-1.545 3.262-5.795 2.404-6.889"/><path d="M206.692 328.952c-1.946 1.995-.058 6.695 2.633 6.695 2.689 0 4.35-2.38 3.834-5.407"/><path d="M217.621 328.568c-.344 2.962 3.548 5.022 6.067 2.255"/><path d="M223.808 325.408c.343-.644.058-1.739-.514-2.254"/><path d="M202.517 332.944c-2.232 1.997 2.576 7.533 5.609 2.447"/><path d="M219.74 331.848c-1.431 1.543.858 5.6 3.148 4.377"/><path d="M211.904 334.68c.343 2.767 5.151 4.827 8.185.58"/><path d="M214.535 337.448c-.744 1.74.745 4.51 2.576 4.123"/><path d="M260.096 353.36c-1.774 3.927 3.892 8.5 8.014 3.733"/><path d="M264.213 359.216c-.858 2.123.172 5.087 1.717 6.18"/><path d="M258.837 363.656c.401-1.933 2.862-3.737 5.095-2.833"/><path d="M255.858 358.568c.343-1.737 2.404-3.477 3.95-3.023"/><path d="M390.649 278.208c-8.127.129-4.693 14.81 2.29 11.848"/><path d="M388.018 289.032c-1.603 2.962 1.487 7.663 4.921 4.894"/><path d="M392.028 294.504c-2.406 4.507 6.181 11.397 9.615 4.314"/><path d="M398.898 301.52c.113 4.25 11.103 6.954 9.503-1.545"/><path d="M407.367 304.608c2.631 5.022 12.477 5.538 11.446-1.932"/><path d="M416.64 307.832c2.062 3.348 11.677 5.409 11.334-1.546"/><path d="M377.6 265.464c1.372 3.992 6.065 5.409 11.218 3.091"/><path d="M374.628 268.296c3.206 2.318-1.487 12.878-6.409 8.628"/><path d="M374.628 274.864c3.55 1.932 7.899.515 9.158-5.151"/><path d="M381.611 274.088c.344 2.962 4.121 5.28 9.043 4.121"/><path d="M372.793 277.184c4.581 4.379-2.059 13.394-5.037 9.272"/><path d="M374.514 280.528c2.175 1.803 7.784.773 8.356-3.992"/><path d="M380.352 280.528c.459 3.091 2.634 4.25 5.724 4.379"/><path d="M373.255 284.776c2.287 3.606 8.012 4.636 10.53-.129"/><path d="M381.262 287.352c-.228 3.477 3.206 6.31 6.756 5.538"/><path d="M368.789 295.08c2.975 1.674 6.181-4.636 3.662-9.014"/><path d="M372.224 301.776c3.55.258 4.006-5.795.687-9.144"/><path d="M380.352 307.312c2.978-.773 2.059-8.114-5.153-8.758"/><path d="M389.39 312.728c2.862-.902.572-9.015-7.324-8.5"/><path d="M400.27 315.56c1.944-3.348-4.465-9.014-9.73-6.053"/><path d="M405.646 320.192c3.55 1.159 5.953-9.401-5.265-7.727"/><path d="M412.174 320.192c3.093-.901 5.268-7.212-3.775-5.151"/><path d="M419.044 320.712c2.747 1.546 4.006-7.469-4.353-5.022"/><path d="M372.907 292.632c3.434 2.189 8.815-.386 8.356-5.28"/><path d="M379.89 291.608c1.147 2.318.687 6.825-1.487 7.984"/><path d="M380.231 297.016c2.29 1.03 5.381.129 7.212-3.992"/><path d="M384.242 297.016c.684 1.803.916 5.409-.575 7.212"/><path d="M384.818 300.104c2.519 1.545 5.493-.515 6.753-3.477"/><path d="M389.966 299.2c1.831 1.288 3.434 7.341.344 9.788"/><path d="M392.028 306.16c2.175.129 5.381.129 7.44-2.962"/><path d="M397.98 304.872c1.947.644 4.234 4.25 3.434 7.47"/><path d="M401.529 311.176c2.178-.258 5.953-1.932 6.984-4.894"/><path d="M407.481 308.216c1.834 1.159 3.093 3.606 2.862 6.439"/><path d="M410.34 312.592c2.175-.129 4.121-1.416 4.693-4.121"/><path d="M414.464 310.28c1.603.644 3.55 2.704 3.665 5.151"/><path d="M417.899 313.88c1.603-.258 2.747-1.417 3.778-3.22"/><path d="M426.027 310.408c2.062 2.318-.684 10.046-4.921 8.629"/><path d="M382.066 154.32c-4.237 2.833-16.258 1.932-10.305-9.272"/><path d="M383.211 146.72c-8.356 3.735-18.661-3.477-7.899-11.333"/><path d="M372.452 132.816c-6.984 0-11.677 12.621-2.287 16.999"/><path d="M345.323 138.096c-1.831 3.992 4.693 8.37 9.158 4.379 3.458-3.093 3.203-11.462 1.144-14.682"/><path d="M341.774 147.624c-2.29 8.499 14.539 9.014 11.905-4.508"/><path d="M340.857 160.248c.572 6.439 16.142 4.379 11.103-8.629"/><path d="M353.792 148.008c1.259 1.932 4.693 5.28 10.53 4.636"/><path d="M356.537 138.864c.516 2.318 4.006 4.121 8.471 2.383"/><path d="M200.341 334.808c-3.949 3.157 2.118 8.114 4.35 2.64"/><path d="M197.248 337.256c-3.949 3.153 2.118 8.11 4.35 2.637"/><path d="M193.984 339.64c-3.95 3.157 2.117 8.114 4.35 2.64"/><path d="M190.549 341.832c-3.778 2.253.629 7.79 4.464 2.897"/><path d="M186.83 343.96c-3.778 2.25.63 7.79 4.465 2.897"/><path d="M206.009 337.32c-.058 3.283 5.495 4.637 7.497-.26"/><path d="M209.5 340.352c-1.717 2.447 1.431 5.473 3.148 4.377"/><path d="M202.112 339.896c-.172 2.77 4.636 4.38 6.983 1.353"/><path d="M204.75 342.8c-1.546 2.253 1.488 5.28 3.434 4.377"/><path d="M198.912 342.408c.171 2.19 2.919 4.7 5.895 3.283"/><path d="M200.683 345.368c-1.145 1.16-.572 3.867 1.03 4.703"/><path d="M194.731 345.176c-.458 1.997 2.576 5.54 5.667 3.22"/><path d="M195.356 347.496c-1.831 1.61-1.603 4.057.744 4.377"/><path d="M190.955 347.24c-.229 1.35 1.317 3.54 3.263 3.283"/><path d="M181.163 347.112c-1.831 1.093 2.862 6.697 5.78 1.48"/><path d="M176.64 349.424c-2.289 1.227 3.377 7.407 5.896 1.097"/><path d="M191.467 349.168c-1.775.45-2.919 3.35-1.431 4.507"/><path d="M185.685 350.2c-.229 1.16 1.946 3.09 3.721 2.383"/><path d="M184.199 350.72c-1.717 1.223-.801 4.633 1.202 4.12"/><path d="M178.076 352.968c-1.603 1.35-.516 4.057 1.717 3.413"/><path d="M180.992 352.776c.058.707 1.488 1.803 2.691 1.353"/><path d="M172.523 351.616c-2.003.967-1.888 6.633 4.866 3.543"/><path d="M168 353.872c-2.805 1.547-1.889 5.797 4.236 1.74"/><path d="M172.75 355.936c-.744.643-1.545 3.477 1.259 2.38"/><path d="M167.602 357.28c-1.145 1.16-.4 3.543 2.119 2.64"/><path d="M161.707 357.672c-2.06 1.353 2.461 3.157 5.495-.45"/><path d="M163.079 359.344c-.916 1.03-.916 4.057 1.488 2.963"/><path d="M157.241 360.568c-1.374 1.16.973 2.707 5.266.58"/><path d="M158.955 362.24c-1.603 1.48-1.431 3.347.916 2.767"/><path d="M154.204 363.08c-1.774 1.803.801 3.027 3.892 1.543"/><path d="M154.261 365.08c-3.034 1.543-1.717 4.377.171 3.283"/><path d="M255.573 374.928c-.703 1.703 1.603 3.09 3.778 2.703 2.089-.37 4.088-2.307 2.518-5.02"/><path d="M261.98 375.96c2.06 1.803 5.724-.257 5.724-2.963"/></g><g fill="#fff"><path d="M388.245 103.064c-9.158-5.151-28.16-14.682-33.541-6.954 4.921-2.318 19.345.129 31.25 12.492l2.29-5.538z"/><path d="M393.799 102.52c-10.59-13.878-16.827-10.771-24.442-15.551-7.152-4.491-18.545-5.409-20.752 1.734 10.45-5.726 20.045 3.079 25.938 4.144 8.095 1.462 12.663 8.502 15.031 11.74l4.225-2.067z"/><path d="M433.692 100.744c-5.496-14.166-17.247-10.466-22.438-16.484-7.553-8.757-26.67-16.87-34.569-10.818 17.399-1.03 24.809 13.492 34.113 18.545 6.64 3.606 13.737 11.333 22.895 8.758z"/><path d="M413.092 99.2c-9.387-13.136-23.814-24.726-30.45-20.348 8.699.515 11.446 7.341 17.63 11.719 6.181 4.379 3.434 10.689 12.821 8.629z"/><path d="M368.441 122.384c-9.846-4.121-29.076-6.181-38.006 6.439 14.883 2.833 37.318 1.288 38.006-6.439z"/><path d="M366.613 127.28c-9.846-5.151-17.535 2.044-26.788 1.03-17.627-1.932-30.219-.773-31.822 8.758 10.074-10.174 27.017-1.803 33.884-3.863 6.868-2.061 32.282-.258 40.294 3.606-4.121-5.666-10.53-7.212-15.568-9.53z"/><path d="M397.518 97.784c-2.287-8.5-2.175-17.514 9.158-16.87-2.862-3.992-13.392-6.053-15.111 8.886-12.477-10.302-26.101-12.106-28.617-3.219 6.409-6.182 16.368-1.674 28.272 13.522 1.031-.644 3.778-1.932 6.296-2.318z"/><path d="M380.352 109.504c-7.096-5.151-16.714-13.522.116-16.87-7.212-4.379-17.745-2.447-16.599 12.492-19.233-8.758-33.043-5.802-35.947 2.833-3.206 9.53 8.703 14.81 10.761 8.758-2.175 1.03-9.615-1.803-5.724-7.212 3.893-5.409 23.84-1.348 42.815 9.788 5.265 3.091 23.351 2.576 4.578-9.788z"/><path d="M375.31 123.672c-5.476-12.578-23.238-1.159-26.818-13.342-4.892 17.85 25.259 7.973 26.818 13.342z"/><path d="M488.299 137.32c3.724 2.082 6.945-1.191 1.247-3.758 3.727 2.081 6.978-1.114 1.28-3.682 3.727 2.081 6.978-1.114 1.28-3.682-1.52 1.721-3.695 8.032-3.807 11.122z"/><path d="M490.24 113.112c8.243-9.787-.684-13.136 9.387-23.181 8.243-8.218 1.573-13.696 9.39-20.09 2.519-2.06 8.012-6.181 8.471-10.302 3.319 9.272-10.305 10.56-9.39 25.499.584 9.512-5.132 8.681-7.324 24.726-.459 3.348-2.519 10.818-10.534 3.348z"/><path d="M493.909 117.488c4.578-11.075 9.834-10.862 12.361-15.196 4.809-8.242 14.996 1.417 23.583-5.924-1.487 10.431-13.049 6.697-18.086 13.394-5.037 6.697-9.158 9.788-17.858 7.727z"/><path d="M495.054 121.096c8.015-7.212 13.92-2.401 19.461-6.182 13.965-9.53 19.576 1.932 32.053-2.576-3.321 9.014-21.751 1.288-29.763 7.985-8.015 6.697-36.175 13.136-21.751.773z"/><path d="M471.701 172.48c-.116-4.121-3.55-9.402-8.358-10.045-4.806-.644-6.868-6.311-10.53-6.568-3.662-.258-6.068-8.5-11.105-8.371-5.037.129-7.096 7.469 4.693 14.166 11.792 6.697 24.841 14.424 25.301 10.818z"/><path d="M456.818 175.96c-5.037.258-5.724 8.5-10.53 8.758 6.637 3.992 11.446-1.803 14.88-6.954l-4.35-1.803z"/><path d="M460.942 176.984c-4.35 4.121-5.609 12.75.687 15.196-3.778-5.86 6.64-8.5 3.434-13.909l-4.121-1.288z"/><path d="M465.287 177.248c-3.434 7.469 5.381 8.37 3.09 14.038 5.037-1.288 5.84-11.977 1.259-14.81l-4.35.773z"/><path d="M431.63 161.272c8.243-.515 15.781 4.501 20.836 12.621 3.206 5.151 13.965 7.212 17.63 3.091 3.662-4.121 1.603-12.878-7.556-10.045-2.29-4.379-8.93-2.833-12.134-6.439-3.206-3.606-15.57-13.908-18.776.773z"/><path d="M462.542 166.944c-2.175.515-2.862 4.765-1.49 6.954"/><path d="M467.236 169.52c.687 1.288.228 3.091-.116 3.992"/><path d="M444.686 161.664c4.234.258 5.037 3.735 9.615 5.023"/><path d="M441.884 149.944c14.628 4.121 26.234 7.727 33.431 12.363 7.197 4.636 18.341 5.924 28.092 2.833 9.751-3.091 28.554-5.924 27.627 7.727 5.111-6.826-1.393-14.166-14.394-15.454.234-6.697-6.136-12.75-10.717-8.758 4.237-.644 7.893 8.242-.462 11.848 1.624-6.697-4.296-12.75-10.448-9.787 3.947 1.288 7.938 8.734-.892 11.59-5.573 1.803-13.698-.515-19.733-4.636-6.036-4.121-39.932-19.06-32.503-7.727z"/><path d="M478.798 143.248c-4.578 2.318-1.603 7.727-8.699 10.818-7.099 3.091-12.021 10.174-10.418 16.226 4.809-11.848 13.28-11.333 16.255-15.969 2.978-4.636 7.327-11.462 2.862-11.075z"/><path d="M480.057 144.016c-.228 9.401-6.806 5.976-4.237 19.189.803 4.121 2.29 10.818-.228 17.514 7.383-6.053 2.634-18.768 5.953-23.567 1.603-2.318 3.662-5.924 4.465-9.014-1.719 5.409-1.603 15.454 3.09 18.03-3.778-10.046 10.19-18.287.572-29.878-1.372 2.833-5.724 7.856-9.615 7.727z"/><path d="M456.704 134.616c1.147 1.932 2.29 6.826 1.259 9.53 2.29-1.545 5.612-5.538 6.64-8.242 4.693.773 6.524 7.341 2.062 10.174 2.747 0 7.44 0 10.071-3.477-3.203-3.992-13.161-10.174-20.033-7.985z"/><path d="M385.5 116.144c-.741-.759-1.991-1.481-4.234-2-6.93-1.599-3.351-8.627 2.548-8.565 12.59-15.454 19.659-3.541 34.999-8.434 5.369-1.712 9.055-1.206 11.979.217 6.868-5.151 14.925-3.712 20.764 2.341.649-1.161 1.52-2.047 2.744-2.43 5.378-1.68 9.727 3.478 11.215 10.175 4.193-.874 8.981 1.461 12.13 4.68 4.361-2.52 7.366-2.632 8.471-.041 3.893-2.061 8.937-3.353 11.455 3.602 2.519 6.954-5.953 4.894-7.327 19.575-.847 9.057-9.843 12.621-16.942 7.212-11.354-8.654-22.436-10.046-27.932 3.091-5.493 13.136-9.798 20.768-23.123 16.484-4.806-1.546-10.99.515-14.88 6.439-3.893 5.924-9.846.386-16.942 1.03 8.927-1.545 5.508-4.072 13.28-4.636 7.096-.515 5.265-7.984 9.843-9.014-17.858 5.151-17.17-2.318-31.822 2.833 6.409-9.272 16.483-4.121 21.52-9.53-13.28-.258-19.218-10.018-25.185-5.924-9.387 6.439-5.268 24.772-29.763 23.181-11.905-.773-19.461 1.03-26.557 9.015 12.365-28.847 29.183-12.999 37.318-22.15 4.809-5.409 8.471-9.53 10.99-14.682.886-1.813 2.086-2.85 3.585-3.25-20.376-7.212-8.053-18.446 11.867-19.218z"/><path d="M486.108 112.088c.311.724.471 1.664.471 2.826 0 5.666-7.556 5.924-8.012 14.295-.24 4.379-.687 6.825-3.321 6.31-2.631-.515-4.921-5.151-2.403-10.56"/><path d="M389.276 107.704c-1.896-1.499-3.793-2.108-5.493-2.126"/><path d="M430.748 97.32c6.062 2.953 9.019 10.037 17.825 10.384 8.477.335 13.739 14.166 27.932 5.151.385-.244.761-.472 1.126-.683"/><path d="M451.556 99.704c-1.265 2.263-1.553 5.423-1.206 8.195"/><path d="M423.851 128.824c-10.758 0-13.508 6.181-13.508 12.106 0 5.924 5.037 13.651 13.968 13.651 8.927 0 13.737-6.181 13.737-12.878s-5.496-12.878-14.196-12.878z"/><path d="M425.792 154.32c-.228-3.348-5.609-2.833-5.381-5.409.228-2.576 2.978-3.606 2.978-7.212s4.806-3.864 6.409-1.03c1.603 2.833 6.412 8.37 7.443 5.538"/><path d="M429.803 140.672c-2.519 2.833-3.662 8.628-.344 13.136"/><path d="M433.237 145.048c-.8 1.932-1.028 4.894-.113 6.697"/><path d="M475.989 135.584c8.415.773 9.846-9.659 3.55-10.302" fill="none"/><path d="M465.636 107.448c-2.919-4.185-9.615-5.602-9.73 3.284" fill="none"/><path d="M455.104 120.84c-2.862-7.985-10.19-9.144-14.083-5.151-3.239 3.323-3.319 11.977 3.665 13.78 2.403-3.219 7.096-7.469 10.418-8.628z"/><path d="M451.954 115.816c-4.121-4.121-10.19 3.671-4.693 10.818"/><path d="M373.554 135.328c2.759-.737 6.791.782 12.975 4.054 3.893 2.061 15.57 6.439 22.895 2.061-7.556 3.091-13.277-9.788-19.002-8.242-5.724 1.545-16.198 3.928-20.604-.773 10.758.773 16.545-8.817 28.845-.515 3.437 2.318 7.787 3.864 11.677 3.606-10.071-13.651-23.351-4.894-24.726-15.969 6.068 7.341 20.892-1.674 28.447 12.106"/><path d="M387.79 121.608c-1.416-1.983-.776-3.96-2.296-5.524"/></g><path d="M654.8 134.31c-3.542-3.783-11.267-.805-9.096 6.842 1.692-3.541 5.313-6.52 9.096-6.842z" stroke="none" transform="scale(.711 .8)"/><path d="M632.91 154.93c2.438-1.77 4.954-3.223 7.075-3.882-1.158-2.864-2.829-5.026-4.758-6.535-1.842-1.272-7.133 5.844-2.317 10.416z" stroke="none" transform="scale(.711 .8)"/><g fill="none"><path d="M443.237 113.496c-4.121-3.091-7.898-2.833-9.157-.257-2.974-.129-5.436 2.318-5.552 7.212"/><path d="M434.883 122.512c-4.921-3.799-11.675-2.382-11.216 6.118"/><path d="M420.692 133.456c2.403-2.189 5.836-3.735 8.47.129"/><path d="M457.436 125.088c-.915 1.416-1.603 3.606-.116 6.954-1.831-2.705-6.408-2.705-11.332 4.507"/><path d="M468.307 124.704c-5.952.773-5.836 5.151-1.031 7.083"/><path d="M425.96 108.344c-5.036-1.159-8.698 2.189-1.715 5.023"/><path d="M435.573 104.48c-7.098-1.932-9.96.129-6.754 1.932"/><path d="M415.082 136.552c-.228 2.833 1.144 6.568 5.264 2.318"/><path d="M416.461 145.048c0 .773-.116 1.674-.575 2.318"/><path d="M399.973 107.312c-4.349-1.417-5.149-5.924-.113-5.538"/><path d="M398.487 117.744c-4.808-1.803-4.808-7.083-.803-6.568"/><path d="M407.417 115.04c-5.608-1.546-5.836-5.924-1.6-5.28"/><path d="M408.1 101.648c-2.974-.257-7.554 3.477.116 5.667"/><path d="M416.461 109.12c-6.983-1.159-6.867 2.061-2.749 4.121"/><path d="M421.723 101.648c-5.38-1.159-7.211 2.447-3.549 3.992"/><path d="M404.787 123.928c-1.318-1.223-2.403-7.083 3.89-5.344"/><path d="M417.833 122.128c-4.233-1.288-8.239 3.348-4.349 6.053"/><path d="M423.436 116.592c-4.462-.902-8.239.515-5.836 2.318"/></g><path d="M465.321 107.448c-2.515.524-4.77 2.187-6.23 5.472" fill="#fff"/></g></g></svg>