<svg xmlns="http://www.w3.org/2000/svg" xmlns:xlink="http://www.w3.org/1999/xlink" width="640" height="480"><desc>European flag</desc><defs><g id="d"><g id="b"><path id="a" d="M0-1l-.309.951.476.155z"/><use xlink:href="#a" transform="scale(-1 1)" width="810" height="540"/></g><g id="c"><use xlink:href="#b" transform="rotate(72)" width="810" height="540"/><use xlink:href="#b" transform="matrix(-.809 .588 -.588 -.809 0 0)" width="810" height="540"/></g><use xlink:href="#c" transform="scale(-1 1)" width="810" height="540"/></g></defs><path fill="#039" d="M0 0h640v480h-640z"/><g transform="matrix(23.737 0 0 23.737 319.775 242.642)" fill="#fc0"><use xlink:href="#d" y="-6" width="810" height="540"/><use xlink:href="#d" y="6" width="810" height="540"/><g id="e"><use xlink:href="#d" x="-6" width="810" height="540"/><use xlink:href="#d" transform="matrix(-.809 -.588 .588 -.809 -3 -5.196)" width="810" height="540"/><use xlink:href="#d" transform="matrix(-.809 .588 -.588 -.809 -5.196 -3)" width="810" height="540"/><use xlink:href="#d" transform="matrix(.309 .951 -.951 .309 -5.196 3)" width="810" height="540"/><use xlink:href="#d" transform="matrix(.309 .951 -.951 .309 -3 5.196)" width="810" height="540"/></g><use xlink:href="#e" transform="scale(-1 1)" width="810" height="540"/></g></svg>